<?xml version="1.0" encoding="UTF-8"?>
<svg xmlns="http://www.w3.org/2000/svg" viewBox="0 0 142 158">
  <path fill="#f7f6f6" d="M130.84,137.64c-.38-3.55-3.93-2.48-6.36-2.01-2.44.47-4.91,1.28-7.37,1.8-5.41,1.14-9.69,1.55-15.22,1.89l17.93-10.33s-.33-7.46-10.94-18.45c-4.6-4.76-12.4-9.86-17.11-14.51-3.88-3.19-7.25-8.3-7.63-8.74-2.28-2.62-3.2-6.16-2.47-9.57.75-3.48,1.77-7.9,2.74-10.7.96-2.77,3-4.41,5.79-6.46,6.52-3.64,8.2-8.2,10.27-16.68,4.84-19.8.19-51.92-5.95-42.02-3.21,5.18-17.78,60.07-18.31,62.92-.48,2.54-1.5,6.06-2.43,9-2.07-2.63-5.25-6.82-6.97-9.73-1.47-2.5-1.42-5.07-1.18-8.48,1.06-5.37,1.69-11.89-3.67-19.2-1.27-1.73-13.58-14.38-18.05-18.68-.78-.75-1.97-.99-2.93-.47-1.32.71-1.69,2.39-.86,3.59l12.79,18.35c.66.95.64,2.28-.18,3.1-1.07,1.07-2.77.88-3.59-.29l-12.96-18.42c-.78-1.1-2.3-1.37-3.4-.6l-.13.09c-1.12.78-1.39,2.32-.61,3.43l12.86,18.46c.67.96.63,2.31-.2,3.13-1.07,1.04-2.75.85-3.57-.32l-13.03-18.52c-.78-1.11-2.3-1.37-3.41-.6l-.45.32c-.99.69-1.33,2-.8,3.09,2.75,5.63,10.75,22.04,11.96,23.66,5.21,6.99,9.47,8,16.84,9.19,3.33.97,5.8,1.81,7.64,4.09,3.32,4.1,8.42,12.81,8.63,13.11,1.22,1.76,1.55,3.99.89,6.02v.02s0,0,0,0c0,0-2.64,9.65-6.18,16.47-3.79,7.31-18.14,20.08-25.97,4.23-.59-1.19-3-11.6-4.75-17.24l-7.62,2.19,1.53,5.91c-6.65-2.29-17-3.32-23.1.79-2.76,1.86-5.38,6.93-.73,7.92,4.26.9,10.99.16,15.65.49,1.83.13,9.32.93,10.58,1.64.1.06.28.28.22.33l-17.55,5.04c5.24,11.28,16.73,26.91,36.24,23.15,12.34-2.38,29.42-10.81,29.42-37.71,0-2.08,2.55,7.22,3.68,9.36l18.52,47.33,9.94-3.53-2.82-5.55c6.13.65,12.51.08,18.03-2.81,3.19-1.67,6.83-4.39,6.4-8.47Z"/>
</svg>
