<?xml version="1.0" encoding="UTF-8"?>
<svg id="Capa_2" data-name="Capa 2" xmlns="http://www.w3.org/2000/svg" viewBox="0 0 622.7 597.42">
  <defs>
    <style>
      .cls-1 {
        fill: #fdfdfe;
      }
    </style>
  </defs>
  <g id="Capa_1-2" data-name="Capa 1">
    <g>
      <path class="cls-1" d="M298.51,175.57h29.55c8.05,0,21.61-16.17,36.18-17.63,63.98-6.42,64.01,90.39.89,84.66-17.96-1.63-26.72-18.51-43.24-18.51h-23.38v117.32h-83.8c2.16-4.75,6.04-8.45,8.65-12.96,28.9-50.03-16.35-110.51-72.34-97.04-40.98,9.86-62.25,55.94-43.2,93.84l10.74,16.16H36.96c-11.37,0-25.97-11.14-30.91-21.14-17.98-36.39,6.09-83.55,46.35-89.13-9.79-44.36,16.54-92.96,59.98-106.74-2.47-6.61-5.67-13.01-6.84-20.06-6-36.1,23.41-69.99,60.21-67.33,23.46,1.69,40.36,18.75,38.35,42.83-.72,8.61-12.22,25.77,2.28,25.98,8.72.13,15.15-2.21,25.48.98,7.01,2.17,17.02,13.08,23.03,7.06,10.2-10.23-11.61-20.14-19.23-22.33-5.62-1.61-11.6-2.48-17.43-2.42,6.36-23.23-4.22-48.82-25.48-60.08-1.33-2.27,7.23-10.51,9.19-12.22,23.75-20.78,70.72-25.42,89.35,4.1,3.07,4.87,7.21,16.3,7.21,21.9v132.76ZM147.47,156.4c-21.6,2.43-42.89,17.83-53.44,36.54-3.7,6.56-16.44,34.24-.71,33.75,8.44-.26,8.94-12.86,11.59-19.34,10.32-25.22,34.84-37.88,61.61-35.21,5.91.59,15.09,5.54,19.73,3.63,6.06-2.49,6.44-9.99,1.04-13.82-8.42-5.97-29.74-6.69-39.83-5.55Z"/>
      <path class="cls-1" d="M324.97,36.63c4.61-34.06,46.39-42.08,74.06-32.6,17.91,6.14,30.7,20.13,39.43,36.49,52.29-18.72,98.25,35.06,71.75,83.88,37.92,11.93,64.02,51.23,61.75,90.87,0,0-13.05-.63-23.18,2.85-17.1,5.87-31.65,24.7-32.4,43.02-21.89-9.86-48.75-8.58-67.84,6.69-5.57,4.46-16.52,13.68-8.22,20.67,7.36,6.19,13.76-5.15,19.67-9.21,16.76-11.51,36.67-11.26,54.03-1.23,5.14,2.97,7.22,8.13,14.77,5.63,7.26-2.41,2.6-12.9,2.59-17.69-.03-27.01,27.3-40.95,51.14-31.74,32.88,12.7,49.92,53.31,34.31,85.44-5.08,10.45-19.27,21.72-31.21,21.72h-140.7v26.02c0,15.99,20.69,24.2,18.51,50.27-4.92,58.67-99.47,45.22-83.53-15.61,2.85-10.89,16.5-24.12,16.5-32.01v-28.67h-71.45v-92.62c3.93,1.68,6.96,5.16,10.66,7.43,63.44,38.94,132.69-41.98,85.06-98.3-24.75-29.26-67.08-30.59-95.72-6.16V36.63ZM434.93,128.5c4.39-4.46,2.95-17.79,1.83-23.71-3.44-18.18-18.37-35.56-35.7-41.93-8.44-3.1-35.16-9.24-29.82,7.78,1.87,5.98,8.72,3.78,13.17,4.47,20.2,3.13,36.1,17.09,37.58,38.28.34,4.79-1.84,9.67.53,13.6,2.53,4.2,8.96,5.02,12.41,1.52Z"/>
      <path class="cls-1" d="M190.89,366.99h94.39c5.65,8.51,7.7,15.09,4.46,25.19-6.29,19.61-26.8,24.81-45.46,23.32-6.64-.53-21.09-6.93-22.49,4.06-.52,4.09,5.53,14.9,6.15,21.1,2.14,21.26-6.79,37.72-24.42,48.78-5.59,3.51-12.58,3.22-10.82,12.91,2.14,11.76,20.78-.15,25.83-4.07,20.34-15.81,29.84-41.63,23.53-66.89,0,0,10.7.22,18.08,0,23.72-.7,37.91-19.62,38.37-19.4l.04,112.5c-1.84,54.12-51.4,84.86-102.17,68.58-27.91-8.95-54.36-38.39-54.9-68.65-.1-5.34,2.84-11.11-.85-15.86-4.41-5.69-12.67-3.16-14.07,3.6-2.72,13.17.86,26.6,4.35,39.19-38.16,2.3-70.17-32.47-62.54-70.47,25.75,4.73,56.91-6.11,65.88-32.49,2.89-8.5,5.99-33.47-8.88-30.05-8.82,2.03-4.16,11.36-4.36,16.73-.45,12.19-11.03,24.16-22.25,28.1-42.69,15-81.28-34.65-73.29-75.06,1.92-9.72,12.63-21.13,22.98-21.13h93.95v-26.02c0-9.6-8.24-16.45-12.5-23.67-21.36-36.23,16.19-77.74,54.56-60.73,22.14,9.81,31.1,37.6,19.85,58.98-3.66,6.96-13.39,14.97-13.39,23.66v27.79Z"/>
      <path class="cls-1" d="M371.72,366.99c-25.11,28.62-21.22,73.87,9.78,96.52,54.69,39.95,125.52-16.93,99.76-78.59l-10.74-17.93h103.65c8.63,0,18.9,9.14,21.78,17.04,8.39,23.07-4.23,52.96-22.21,68.1-7.29,6.14-15.31,9.28-23.78,13.33,9.34,22.52,6.79,47.73-9.73,66.07-15.12,16.79-41.71,25.17-63.25,16.45-19.26-7.8-22.44-34.17-5.87-46.75,5.41-4.11,14.25-5.02,11.36-14.32-4.09-13.12-23.55,3.1-28.19,8.94-14.77,18.6-12.92,44.42,5.24,59.88,1.6,1.36,8.62,5.23,8.31,6.57-.39,1.67-13.16,14.48-15.42,16.36-31.25,26.11-83.71,25.41-110.65-6.62-6.45-7.67-16.79-27.12-16.79-37.02v-168.04h46.75Z"/>
    </g>
  </g>
</svg>