<?xml version="1.0" encoding="UTF-8"?>
<svg id="Capa_2" data-name="Capa 2" xmlns="http://www.w3.org/2000/svg" viewBox="0 0 449.89 158">
  <defs>
    <style>
      .cls-1 {
        fill: #f7f6f6;
      }
    </style>
  </defs>
  <g id="Capa_1-2" data-name="Capa 1">
    <g>
      <g>
        <path class="cls-1" d="M130.84,137.64c-.38-3.55-3.93-2.48-6.36-2.01-2.44.47-4.91,1.28-7.37,1.8-5.41,1.14-9.69,1.55-15.22,1.89l17.93-10.33s-.33-7.46-10.94-18.45c-4.6-4.76-12.4-9.86-17.11-14.51-3.88-3.19-7.25-8.3-7.63-8.74-2.28-2.62-3.2-6.16-2.47-9.57.75-3.48,1.77-7.9,2.74-10.7.96-2.77,3-4.41,5.79-6.46,6.52-3.64,8.2-8.2,10.27-16.68,4.84-19.8.19-51.92-5.95-42.02-3.21,5.18-17.78,60.07-18.31,62.92-.48,2.54-1.5,6.06-2.43,9-2.07-2.63-5.25-6.82-6.97-9.73-1.47-2.5-1.42-5.07-1.18-8.48,1.06-5.37,1.69-11.89-3.67-19.2-1.27-1.73-13.58-14.38-18.05-18.68-.78-.75-1.97-.99-2.93-.47-1.32.71-1.69,2.39-.86,3.59l12.79,18.35c.66.95.64,2.28-.18,3.1-1.07,1.07-2.77.88-3.59-.29l-12.96-18.42c-.78-1.1-2.3-1.37-3.4-.6l-.13.09c-1.12.78-1.39,2.32-.61,3.43l12.86,18.46c.67.96.63,2.31-.2,3.13-1.07,1.04-2.75.85-3.57-.32l-13.03-18.52c-.78-1.11-2.3-1.37-3.41-.6l-.45.32c-.99.69-1.33,2-.8,3.09,2.75,5.63,10.75,22.04,11.96,23.66,5.21,6.99,9.47,8,16.84,9.19,3.33.97,5.8,1.81,7.64,4.09,3.32,4.1,8.42,12.81,8.63,13.11,1.22,1.76,1.55,3.99.89,6.02v.02s0,0,0,0c0,0-2.64,9.65-6.18,16.47-3.79,7.31-18.14,20.08-25.97,4.23-.59-1.19-3-11.6-4.75-17.24l-7.62,2.19,1.53,5.91c-6.65-2.29-17-3.32-23.1.79-2.76,1.86-5.38,6.93-.73,7.92,4.26.9,10.99.16,15.65.49,1.83.13,9.32.93,10.58,1.64.1.06.28.28.22.33l-17.55,5.04c5.24,11.28,16.73,26.91,36.24,23.15,12.34-2.38,29.42-10.81,29.42-37.71,0-2.08,2.55,7.22,3.68,9.36l18.52,47.33,9.94-3.53-2.82-5.55c6.13.65,12.51.08,18.03-2.81,3.19-1.67,6.83-4.39,6.4-8.47Z"/>
        <g>
          <rect class="cls-1" x="356.4" y="50.04" width="22.03" height="58.92"/>
          <path class="cls-1" d="M449.89,81.94c0-17.62-14.23-31.9-31.78-31.9-4.9,0-9.54,1.12-13.69,3.11v-3.11h-22.03v58.92h22.03v-26.98h.06c.55-5.98,5.56-10.67,11.67-10.67s11.11,4.68,11.67,10.67h.06v26.98h22.03v-26.92h0s0-.07,0-.1Z"/>
          <path class="cls-1" d="M243.49,50.04v2.8c-4.3-2.41-9.26-3.8-14.54-3.8-16.48,0-29.84,13.41-29.84,29.96s13.36,29.96,29.84,29.96c5.28,0,10.23-1.38,14.54-3.8v3.8h21.91v-58.92h-21.91ZM243.48,80.35c-.15,6.42-5.37,11.58-11.8,11.58s-11.81-5.31-11.81-11.86,5.29-11.86,11.81-11.86c6.04,0,11.02,4.56,11.72,10.43h.09v1.69h0Z"/>
          <rect class="cls-1" x="356.4" y="23.95" width="22.03" height="22.11" rx="9.21" ry="9.21"/>
          <path class="cls-1" d="M193.45,88.43c-4.29,0-7.77-3.49-7.77-7.8h.02v-9.48h10.79v-22.11h-10.79v-14.81h-22.02v14.81h-.1v31.59c.01,16.55,13.38,29.97,29.87,29.97,1.03,0,2.04-.05,3.05-.15v-22.64c-.94.4-1.96.62-3.05.62Z"/>
          <path class="cls-1" d="M305.92,49.04c-5.28,0-10.23,1.38-14.54,3.8v-2.8h-21.91v84.51h21.91v-29.39c4.3,2.41,9.26,3.8,14.54,3.8,16.48,0,29.84-13.41,29.84-29.96s-13.36-29.96-29.84-29.96ZM303.2,91.93c-6.43,0-11.66-5.16-11.8-11.58h0v-1.69h.03v.64c.4-6.18,5.52-11.07,11.78-11.07s11.81,5.31,11.81,11.86-5.29,11.86-11.81,11.86Z"/>
        </g>
      </g>
      <g>
        <path class="cls-1" d="M306.23,130.87c1.04-1.85,2.47-3.29,4.27-4.34,1.8-1.04,3.8-1.56,6-1.56,2.58,0,4.84.62,6.77,1.87,1.93,1.25,3.33,3.02,4.22,5.31h-3.71c-.66-1.43-1.6-2.53-2.84-3.3-1.24-.77-2.72-1.16-4.44-1.16s-3.14.39-4.46,1.16c-1.32.77-2.35,1.87-3.1,3.28-.75,1.42-1.12,3.08-1.12,4.98s.37,3.53,1.12,4.95c.75,1.42,1.78,2.51,3.1,3.28,1.31.77,2.8,1.16,4.46,1.16s3.2-.38,4.44-1.14c1.24-.76,2.18-1.85,2.84-3.28h3.71c-.88,2.27-2.29,4.02-4.22,5.25-1.93,1.24-4.18,1.85-6.77,1.85-2.2,0-4.2-.52-6-1.55-1.8-1.03-3.23-2.47-4.27-4.3-1.04-1.84-1.56-3.91-1.56-6.22s.52-4.39,1.56-6.24Z"/>
        <path class="cls-1" d="M332.08,134.57c.77-1.44,1.83-2.56,3.18-3.35,1.35-.79,2.85-1.19,4.51-1.19s3.05.35,4.25,1.05c1.2.7,2.1,1.59,2.69,2.65v-3.4h3.13v18.64h-3.13v-3.47c-.61,1.09-1.53,1.99-2.74,2.7s-2.62,1.07-4.23,1.07-3.15-.41-4.49-1.22-2.39-1.96-3.16-3.44c-.77-1.47-1.16-3.15-1.16-5.03s.38-3.58,1.16-5.02ZM345.85,135.95c-.57-1.04-1.33-1.84-2.3-2.4-.96-.56-2.02-.83-3.18-.83s-2.21.27-3.16.82c-.95.54-1.71,1.34-2.28,2.38-.57,1.04-.85,2.27-.85,3.67s.28,2.67.85,3.72c.57,1.05,1.33,1.86,2.28,2.41.95.56,2.01.83,3.16.83s2.22-.28,3.18-.83c.96-.56,1.73-1.36,2.3-2.41.57-1.05.85-2.28.85-3.69s-.28-2.63-.85-3.67Z"/>
        <path class="cls-1" d="M381.36,130.9c1.13.6,2.03,1.5,2.69,2.7.66,1.2.99,2.66.99,4.39v10.99h-3.06v-10.54c0-1.86-.46-3.28-1.38-4.27-.92-.99-2.16-1.48-3.72-1.48s-2.89.52-3.84,1.55c-.95,1.03-1.43,2.52-1.43,4.47v10.27h-3.06v-10.54c0-1.86-.46-3.28-1.38-4.27s-2.16-1.48-3.72-1.48-2.89.52-3.84,1.55c-.95,1.03-1.43,2.52-1.43,4.47v10.27h-3.09v-18.64h3.09v2.69c.61-.97,1.43-1.72,2.47-2.24,1.03-.52,2.17-.78,3.42-.78,1.56,0,2.95.35,4.15,1.05,1.2.7,2.1,1.73,2.69,3.1.52-1.31,1.38-2.33,2.58-3.06,1.2-.73,2.54-1.09,4.01-1.09s2.74.3,3.88.9Z"/>
        <path class="cls-1" d="M395.94,131.1c1.21-.71,2.62-1.07,4.24-1.07s3.16.4,4.51,1.19c1.35.79,2.41,1.91,3.18,3.35.77,1.44,1.16,3.11,1.16,5.02s-.39,3.56-1.16,5.03-1.83,2.62-3.18,3.44c-1.35.82-2.85,1.22-4.51,1.22s-2.99-.36-4.2-1.07-2.14-1.6-2.77-2.67v12.28h-3.09v-27.48h3.09v3.44c.61-1.07,1.53-1.96,2.74-2.67ZM405,135.92c-.57-1.04-1.33-1.84-2.3-2.38-.96-.54-2.02-.82-3.18-.82s-2.18.28-3.15.83c-.96.56-1.73,1.36-2.31,2.42-.58,1.05-.87,2.27-.87,3.66s.29,2.64.87,3.69c.58,1.05,1.35,1.86,2.31,2.41.96.56,2.01.83,3.15.83s2.22-.28,3.18-.83c.96-.56,1.73-1.36,2.3-2.41.57-1.05.85-2.3.85-3.72s-.28-2.63-.85-3.67Z"/>
        <path class="cls-1" d="M429.63,130.34v18.64h-3.09v-2.75c-.59.95-1.41,1.7-2.47,2.23-1.05.53-2.22.8-3.49.8-1.45,0-2.76-.3-3.91-.9-1.16-.6-2.07-1.5-2.74-2.7-.67-1.2-1-2.66-1-4.39v-10.92h3.06v10.51c0,1.84.46,3.25,1.39,4.23s2.2,1.48,3.81,1.48,2.96-.51,3.91-1.53c.95-1.02,1.43-2.5,1.43-4.46v-10.24h3.09Z"/>
        <path class="cls-1" d="M437.62,148.55c-1.13-.49-2.03-1.17-2.69-2.04-.66-.87-1.02-1.88-1.09-3.01h3.2c.09.93.53,1.69,1.31,2.28.78.59,1.81.88,3.08.88,1.18,0,2.11-.26,2.79-.78.68-.52,1.02-1.18,1.02-1.97s-.36-1.42-1.09-1.82c-.73-.4-1.85-.79-3.37-1.17-1.38-.36-2.51-.73-3.38-1.11-.87-.37-1.62-.93-2.25-1.67-.62-.74-.94-1.71-.94-2.91,0-.95.28-1.82.85-2.62.57-.79,1.37-1.42,2.42-1.89,1.04-.46,2.23-.7,3.57-.7,2.06,0,3.73.52,5,1.56,1.27,1.04,1.95,2.47,2.04,4.29h-3.1c-.07-.97-.46-1.76-1.17-2.35-.71-.59-1.67-.88-2.88-.88-1.11,0-2,.24-2.65.71-.66.48-.99,1.1-.99,1.87,0,.61.2,1.12.59,1.51.4.4.9.71,1.5.95.6.24,1.43.5,2.5.8,1.34.36,2.43.72,3.26,1.07.84.35,1.56.88,2.16,1.58.6.7.91,1.62.94,2.76,0,1.02-.28,1.94-.85,2.75s-1.37,1.46-2.4,1.92c-1.03.46-2.22.7-3.55.7-1.43,0-2.71-.24-3.84-.73Z"/>
      </g>
    </g>
  </g>
</svg>