<?xml version="1.0" encoding="UTF-8"?>
<svg id="Capa_2" data-name="Capa 2" xmlns="http://www.w3.org/2000/svg" viewBox="0 0 238.71 94.06">
  <g id="Capa_1-2" data-name="Capa 1">
    <g>
      <path d="M151.76,12.28c2.87,2.54,5.2,5.74,7.6,8.75,2.95-2.65,7.05-1.23,9.88.95,1.09.84,2.08,2.47,3.26,3.04,1.89.91,5.06,1.1,7.32,2.12s4.1,3.21,5.89,4,3.75.73,5.66,1.53c2.33.98,4.35,3.17,6.65,4.14,3.11,1.31,6.6,1.49,9.98,3.05,4.42,2.05,9.98,7.54,14.77,7.74s7.34-3.58,5.24-7.97c-2.24-4.66-13.59-10.13-6.08-15.35,3.03-2.11,6.89-1.9,9.81-4.12,1.52.32.28,5.17-.46,6.28-1.68,2.54-4.47,2.09-6.65,2.79-2.77.89,2.77,4.88,3.52,5.76,8.4,9.85,1.79,18.48-10.12,15.74.09,2.21.69,4.25.45,6.52s-2.55,4.58.13,6.16c1.54.91,4.35.53,5.06,1.23.97.97,1.14,4.39,1.99,5.66.27.4,4.24,4.29,4.95,4.94.62.57,1.58.63,2.04,1.11s1.34,3.84,1.13,4.04c-1.35-.09-2.86.2-4.17-.09-2.13-.47-2.62-3.08-3.78-3.43-1.67-.51-2.53,1-4.19.66-1.83-.37-4.55-3.28-7.19-4.09-4.96-1.52-8.43,1.37-12.99-2.74-2.12-1.91-2.02-5.06-2.74-7.6l.9-.23c.75,2.67,2.72,5.44,5.23,6.69,4.48,2.22,6.83.34,11.08,1.06,2.54.43,5.15,2.61,7.3,3.94.37-1.8-3.87-4.64-5.49-5.3-4.55-1.85-9.55.84-13.39-2.8-4.33-4.11-2.87-9.9-5.85-14.37-1.62,1.71.35,4.36.21,6.46-.2,2.88-2.02,4.03-4.7,4.32-5.3.59-11.84-.2-17.31.44.65-.79,1.3-3.81-.68-3.15-.26.09-.91,2.07-1.38,2.68-2.02,2.66-5.83,3.48-7.87,6.53-1.87,2.8,5.42,5.96,7.44,3.83.97-1.01.48-3.2,2.45-3.84.94-.3,5.22-.56,5.42.49-.45.77-1.49,2.9-2.04,3.35-.83.68-2.53.58-2.83,1-.21.3-.16,1.52-.59,2.33-.69,1.3-2.18,2.16-3.65,2-.95-.11-7.03-1.94-8-2.38-2.71-1.25-1.22-1.19-4.6-1.68-.43-.06-.92-.85-1.41-.77-.57.1-2.54,3.29-3.19,4.02-21.37,23.83-57.58,21.08-75.53-4.94-1.04,2.45-2.93,1.43-4.84,1.89-3.32.8-8.68,5.25-12.43,3.23-1.67-.9-2.04-3.2-2.92-3.82-1.03-.73-2.39-.06-3.19-.85-.41-.41-2.4-4.13-2.02-4.5,1.31.2,2.56-.49,3.83-.49,4.41,0,4,5.14,6.84,5.79s7.03-.97,6.32-4.52c-.86-4.32-9.36-5.49-9.35-11.12-2.27.06-.75,1.86-.96,2.84-.48,2.26-7.3.88-9.07.93-2.66.08-7.84,1.53-9.87-.15-2.15-1.77.68-9.09-1-9.46-.87-.07-1.05.79-1.27,1.42-1.37,3.99-.02,7.91-4.12,11.16-5.19,4.12-12.73,1.3-17.77,5.16-.72.55-2.91,2.85-3.13,3.62-.66,2.35,3.19-1.36,3.44-1.51,5.19-3.1,7.59-1.76,12.91-2.37,4.6-.53,6.62-3.13,9.04-6.69,2.62-.65-1.03,5.67-2.04,6.5-4.75,3.9-7.22,2.46-12.34,2.45-4.07-.01-4.93,3.17-8.54,4.12-1.7.45-2.9-.42-4.26.2s-2.16,3.49-4.04,4.07c-1.62.5-2.92-.43-4.51-.26-.36-.35.49-3.65.94-4.23.6-.77,1.46-.69,1.98-1.16,1.35-1.23,5.19-4.04,5.87-4.92.95-1.24,1.51-4.64,2.45-5.2,1.39-.84,4.86.35,7.44-2.46,1.41-1.54-.74-4.24-1.02-6.2-.19-1.3.2-4.77-.55-5.31-3.51.18-5.45,1.23-9,.02-5.29-1.8-7.32-7.36-5.29-12.46,1.38-3.45,5.51-4.97,7.51-7.32,2.6-3.04-3.86-2.8-5.27-3.26-3.35-1.09-5.14-5.43-3.71-8.65,3.2,3.98,12.15,2.47,13.63,7.27,2.21,7.1-10.91,8.93-9.57,17.21.38,2.32,3.3,4.43,5.58,4.5,6.7.23,11.11-6.45,16.56-8.38,3.05-1.08,6.39-.84,9.4-2.28,3.34-1.59,4.67-4.93,9.15-5.69,1.39-.23,2.66.24,4.12-.38,1.26-.54,2.8-2.82,4.3-3.79,2.64-1.71,5.88-2.2,8.71-3.43,2.97-1.29,6.08-4.02,9.38-4.14,1.08-.04,3.18.71,3.72.39.23-.14,2.29-3.61,3-4.43,17.56-20.15,47.63-21.4,67.48-3.84ZM140.07,36.62c5.11-5.74,11.84-9.51,17.68-14.42-17.71-26.53-56.7-27.14-75.02-.9,7.05,5.29,14.72,11.2,19.42,18.78,3.76,6.05,2.63,14,5.94,20.13.57,1.05,4.87,7.08,5.65,7.84.98.96,2.43,1.3,3.14,2.47-6.65,1.05-6.8-6.45-11.69-8.08l4.11,7.79c.92,1.16,2.33,1.6,3.54,2.33.57.34,1.14-.09.89,1.11-4.4.56-6.96-1.88-10.12-4.35-3.29,3.17-5.62,2.1-9.4,2.59-2.99.39-9.68,4.81-9.29-1.62.09-1.45,1.38-2,1.38-3.37l-1.79.45.09-1.48c2.42-2.2,3.49-4.6,4.85-7.51l-9.89,1.34c-.38-.34,4.37-8.11,1.12-9.43-.72,0-1.44,6.27-2.72,7.61-1.15,1.22-4.28.93-4.67,2.1.72,4.75,5.88,7.41,3.11,12.75,1.57-.02,2.95-2.62,3.01-3.89.1-2.12-2.87-5.6-3.45-7.59-.38-1.3,2.49-.53,3.03-.1.06,1.93,2.16,3.81,2.6,5.26.55,1.8-.34,3.57-.02,4.5.29.84,2.84,4.07,3.59,4.97,16.24,19.6,45.97,21.84,64.97,4.72,1.57-1.41,7.59-7.93,8-9.57.3-1.19-.43-2.06-.07-3.6.21-.91,3.17-6.35,3.76-6.65l2.23.93c.03.41-3.28,4.65-3.5,5.96-.14.85.85,4.81,1.72,3.7-.02-1.22-.1-2.4.21-3.61.47-1.8,3.86-5.13,3.83-6.51s-2.57-2.24-3.43-3.07c-3.03-2.92-1.93-6.4-2.53-9.85-.34-1.93-1.84-1.65-2.12-.11-.76,4.18,1.3,7.6,2.25,11.46-2.03,0-4.44.11-6.38-.58-.86-.31-4.54-3.35-4.85-3.01.02,2.27,2.13,3.52,3.33,5.43.61.97,3.68,6.01,2.96,6.71h-1.81c.66,8.96-5.76,2.97-9.71,2.71-1.32-.09-2.48.67-3.96.42s-2.75-2.25-3.63-2.25c-2.95,2.02-5.08,5.36-9.21,4.96l3.53-4.33,2.76-6c-.78-.83-5.05,5.94-5.86,6.5-1.23.86-2.99,1.23-4.48,1.14l4.48-4.73c6.46-9.43,4.6-21.29,12.41-30.07ZM156,38.16l6.51-7.19c.81-4.05-4.11,1.1-4.92,2.28-.94,1.37-1.64,3.24-1.6,4.92ZM83.16,39.95c.01-2.74.63-7.42-3.14-7.64.69,2.32,1.58,4.12,2.24,6.54.2.72-.48,1.33.9,1.1ZM103.39,57.04c1.95-1.87-3.03-9.27-4.25-8.99l-2.48,5.4c2.29-2.49,3.81-2.24,5.28.78.54,1.11.1,3.11,1.45,2.81ZM144.16,50c-.18-.17-1.09-.66-1.18-.59-1.43,3.33-5.93,5.19-4.97,9.43,1.08-.58,1.03-1.9,1.79-2.93.68-.91,3.05-3.25,4.23-2.89.38.12,1.13,2.22,2.07,1.32.47-.45-1.43-3.87-1.94-4.34ZM99.35,64.68c-1.18-.83-4.2,2.18-3.59,2.69,2.18.25,3.91-.1,3.59-2.69ZM142.06,65.58c.46,1.46,1.42,3.88,3.15,2.01.07-1.92-1.59-2.2-3.15-2.01Z"/>
      <path d="M64.11,68.88c-.19-.28-1.19,0-.72-1.05l4.66.05c1.13,1.21,1.9,3.6-.15,4.25-2.5.79-2.63-1.52-3.79-3.25Z"/>
      <path d="M238.71,79.96l-2.69.91c-.02-1.69-2.54-5.46-.46-6.54,2.67-1.38,2.15,4.19,3.15,5.63Z"/>
      <path d="M173.97,68.28l-.95,3.98c-1.3.23-2.79.11-3.78-.84-.55-.91-.01-2.23.69-2.93l4.05-.22Z"/>
      <path d="M2.7,80.42l-2.7-.46c.2-1.55,1.35-8.1,3.64-5.19,1.08,1.37-1.12,3.92-.95,5.65Z"/>
      <path d="M229.73,69.64c.78-1.1,5.71,1.65,4.29,3.62s-4.94-1.64-4.29-3.62Z"/>
      <path d="M7.94,69.23c.59-.05.76.24,1.03.66.47,1.59-2.57,4.63-4.05,3.58-1.83-1.3,2.1-4.16,3.01-4.24Z"/>
    </g>
  </g>
</svg>