<?xml version="1.0" encoding="UTF-8"?>
<svg id="Capa_2" data-name="Capa 2" xmlns="http://www.w3.org/2000/svg" viewBox="0 -44 365.7 183">
  <g id="Capa_1-2" data-name="Capa 1">
    <g>
      <path d="M0,27.27c2.85-.45,5.74-.82,8.62-1.01,11.72-.78,26.66-.83,34.9,8.89s7.49,28.74-1.23,38.34c-8.92,9.82-26.43,9.95-38.69,8.84-1.18-.11-2.41-.26-3.57-.45l-.04-54.62ZM12.59,72.77c7.81.83,16.28-.35,20.66-7.58,3.21-5.29,3.66-14.08,1.51-19.83-3.45-9.25-13.46-10.7-22.18-9.25v36.66Z"/>
      <path d="M200.3,30.83v29.87c.13,6.86,2.1,13.78,10.36,13.27,6.28-.39,8.26-6.21,8.53-11.63v-31.51s11.68,0,11.68,0v30.96c-.34,7.17-2.6,14.51-8.99,18.46-6.63,4.1-18.25,4.27-24.83,0-6.06-3.93-8.03-11.15-8.44-18.01v-31.42h11.68Z"/>
      <path d="M117.06,40.88c14.47-.76,23.38,9.57,22.01,23.73-1.27,13.07-12.58,20.07-25.13,18.18s-18.67-12.94-16.66-25c1.72-10.29,9.52-16.36,19.77-16.9ZM117.42,49.82c-8.5.74-9.06,14.69-5.78,20.4,3.08,5.36,9.92,5.24,12.84-.21,3.2-5.98,2.37-21-7.06-20.19Z"/>
      <path d="M66.52,41.77v23.48c.27,3.13,1.31,6.84,4.83,7.57,4.48.92,8.19-2.31,8.4-6.75v-24.3s12.5,0,12.5,0v32.05s.27,8.34.27,8.34h-10.86l-.55-5.74c-.14-.02-.21,0-.32.09-.2.15-1.01,1.43-1.32,1.78-3.75,4.24-9.78,5.63-15.22,4.36-7.91-1.84-10.25-9.58-10.33-16.85v-24.03h12.6Z"/>
      <path d="M275.41,41.49c-.93-.23-1.8-.63-2.72-.89-7.3-2.06-16.33-1.19-20.83,5.58-3.67,5.51-3.78,14.84-.31,20.47,4.99,8.09,15.77,8.02,23.86,5.3l1.7,9.12c-2.44,1.12-5.2,1.68-7.87,1.99-10.08,1.19-20.87-.75-27.36-9.12-7.36-9.49-6.74-26.05,1.27-35.01,7.03-7.86,17.76-10.03,27.91-8.55,2.26.33,4.64.86,6.68,1.9l-2.33,9.21Z"/>
      <path d="M174.39,51.71c-.93-.39-1.91-.69-2.9-.89-5.15-1-10.62-.2-13.47,4.63-2.42,4.1-2.09,10.6,1.04,14.26,3.82,4.45,10.62,4.21,15.69,2.33l1.45,9.19c-2.2.91-4.6,1.41-6.97,1.65-8.1.85-16.85-.78-21.84-7.72-5.68-7.9-4.96-20.56,1.76-27.66,6.21-6.55,17.11-7.98,25.53-5.63.26.07,1.57.41,1.62.58l-1.91,9.24Z"/>
      <g>
        <path d="M330.66,1.21l1.24.13-.03,1.94-1.21.11v.79c1.33.14,2.26.99,2.53,2.29.34.1,1.45-.17,1.57.2l-.03,1.77c-.13.19-.48.04-.62.13-.09.06-.73,1.72-1.05,1.92,2.21-.42,4.07.74,4.12,3.09.4-.24,1.21-1.31,1.65-1.27l1.89.98.23,1.08c.34-.03.6-.16.96-.11.43.06.82.55,1.15.56s.72-.37,1.03-.34c.27.03.73.61,1.11.73.66.2,1.53.02,2.21.42.73-2.28,3.89-.72,2.47,1.25,1.19.54,1.57,1.81,3.07,1.86l.37,2.04c.89-.72,1.57.04,2.51-.22l.57,1.86c-.07.29-1,.46-.97.89.04.49.64.47.92.91.53.84-.5,2.54-.39,2.63,1.71-.1,3.74,1.27,3.88,3.05.03.35-.26,1.46-.21,1.52.02.02.36.1.51.24,1.07.96-.08,2.67-1.43,2.29.16.86.52,3.1,1.38,3.49.26.12,1.12-.15,1.63-.04,1.16.26.87,2.1-.99,1.91-.51-.05-.96-.36-1.44-.39,3.37,4.75,5.51,10.45,6.17,16.26,2.9,25.55-20.85,45.9-45.73,39.06-22.37-6.15-33.21-31.85-22-52.29.4-.72,1.71-2.49,1.89-3.03.02-.07.02-.19-.05-.17-.85.71-3.19.98-3.05-.63.11-1.24,1.84-.47,2.3-.68.89-.41,1.06-2.52,1.26-3.38-1.26.14-2.19-1.03-1.43-2.17.17-.26.59-.45.61-.48.04-.06-.23-1.11-.22-1.41.04-.94.86-2.11,1.66-2.58.42-.25.8-.26,1.18-.5-.27-.76-.13-1.37.03-2.12l-.69-.05c-.33-.8-.2-1.68-.22-2.52-.01-.42-.41-1.18.29-1.31l5.32-.23c-.94-1.19-.35-1.85.57-2.69.26-.24,1.34-.94,1.43-1.09.19-.31-.07-.72-.05-1.07.06-.95,1.06-1.47,1.91-1.13.4.16.58.78.89.83,1.1.19,3.8-1.56,4.29.61l.23.07,3.75-4.1c.14-.05.25-.02.37.04.3.14,1.14,1.11,1.49,1.37.11.09.15.22.34.17-.25-2.42,1.82-3.64,4.01-3.2-.32-.21-.96-1.87-1.05-1.92-.14-.08-.49.06-.62-.13-.09-.13-.16-1.79.14-1.94l1.42-.07c.35-1.02.82-1.53,1.78-1.99.63-.3.84,0,.73-1.04l-1.24-.13v-1.91s1.24-.13,1.24-.13l.11-1.21h2.19l.11,1.21ZM328.83,2.7v2.06c-1.17.04-2.4.82-2.52,2.06h6.3c-.06-1.29-1.28-2.13-2.52-2.06v-2.06h1.26s0-.8,0-.8h-1.26s0-1.26,0-1.26h-1.19s-.07,1.26-.07,1.26h-1.15s0,.8,0,.8h1.15ZM334.21,7.05h-9.51v.92h9.51v-.92ZM326.06,8.2h-.79c.39,1.81,2.21,2.66,2.76,4.32.48-.04,2.69.16,2.91-.1.08-.1.09-.35.19-.5.83-1.3,2.13-2.14,2.5-3.74h-.8c-.05,1.75-2.23,3.81-3.96,3.32-1.37-.39-2.62-1.91-2.81-3.31ZM332.61,8.19h-6.3c.13,1.35,1.87,3.26,3.26,3.2,1.23-.06,3.03-1.92,3.04-3.2ZM318.58,22.15h-1.72c-.36,0,.08,1.19.06,1.43-.04.47-.93.47-1.35.6-1.1.36-1.92.71-2.91,1.33-.26.16-.77.7-.99.74-.37.08-1.02-.91-1.35-1.13l-1.07,1.1c1.55,2.89-1.41,4.97-3.86,2.79-2.64-2.36-1.02-6.06,2.46-4.17l1.23-1.26c0-.06-.47-.74-.54-.81-.43-.38-2.09.13-2.75-.05l.12,1.49-1.26.12v-.69s-1.37,0-1.37,0v.8s-.67.01-.67.01c-.11.49-.37,1.02-.36,1.53,0,.39.38,1.18.19,1.44-1.94.27-3.26,1.83-2.68,3.81l.17.18c.78-.15,2.76.59,3.36.3.51-.25.18-1.29-.46-1.2,0-.36.35-.24.43-.65.27-1.39-1.46-1.58-1.69-.34l-.35.08c.5-2.06,3.28-1.04,2.06.8.6.07.62,1.23.18,1.5-.9.54-3.71-.89-4.4.41-.23.44-.17.82.29,1.06.94.49,1.11-.39,1.73-.53,1.17-.27,2.75.73,3.57-.67.43-.74.2-1.59-.1-2.33.89.43,1.83,1.02,2.87.86,2.57-1.95,5.36-3.6,8.36-4.81,3.51-1.41,7.18-2.03,10.71-3.26.52-.18,1.82-.88,2.23-.76.24.07.45.4.74.4s.5-.33.74-.4c.42-.13,1.71.57,2.23.76.96.34,1.95.72,2.85,1.05.44.16,1.09.14,1.56.27.18-.13.14-.79.08-1.01-.1-.39-1.07-1.26-1.1-1.42-.03-.14.18-.36.21-.57.05-.4-.16-.7-.23-1.08l-.46.11c-.27-.31.69-1.7.97-1.95.53-.49,2.73-1.74,2.56-2.54-.3-.21-.45-1.05-.58-1.2-.09-.1-.33-.08-.46-.15-.1-.05-.09-.2-.1-.21-.21-.13-.83.94-1.08.56-.13-.2-.03-1.05-.08-1.4-.33-2.3-3.39-2.86-4.71-1.22-.16.2-.37.7-.47.79-.33.29-3.13.03-3.77.1-.64-1.44-1.9-2.09-3.47-1.72-1.75.41-1.97,2.02-1.81,3.57-.63.24-.95.95-1.5,1.36l-.51-.41-.91.95.44.38v.17c-.23.16-.64.84-.91.7l-.97-.86-1.98,2.13.31,1.25,2.13-.18c.22-1.51,1.49-2.93,3.11-2.2,2.1.95,2.36,5.67-.25,5.97-1.52.18-2.08-.49-2.75-1.72ZM317.84,16.55l1.3.91.3-.39-.46-.57,1.33-1.31.56.45.97-1.09-2.1-1.77-4.02,4.34c-.14.31.07.88.16,1.21.04.15-.08.32.18.27l1.78-2.06ZM340.28,13.69c-.72-.11-1.46-1.13-2.07-.3-.08.11-.03.46,0,.56.06.14.28.01.35.15.07.12.06.42.17.61.34.65.69.78.21,1.57-.32.53-1.93,1.46-2.43,1.93-.44.42-.43.98-.93,1.25.42,0,.63.67.68,1.04s-.13.82-.09,1c.04.16.83.87.95,1.23.11.33.06.62.06.95.85.41.55.2.33-.3-.13-.28-.87-1.75-.86-1.85.01-.14.94-1.04.66-1.54.67.13.59.99.84,1.34.05.07,1.1.85,1.17.84l.17-.23c-1.62-.28-.61-1.37-1.14-2.4,1.18-.43,1.55-1.98,2.94-2.03.62-.02.47.87.49,1.28.01.23-.09.33.23.28l-.28-1.72c-.17-.22-.85-.13-1.09,0,0-.27.23-.4.29-.68.07-.29-.02-.77.12-.94.22-.25.97-.52,1.29-.27.45.34,0,1.04.46,1.31.12-.9-.14-1.77-1.2-1.73-.35.01-.67.27-.89.22-.54-.11-1.87-1.42-.43-1.24v-.34ZM315.2,16.89c-.1-1.35-.37-1.46-1.65-1.36-.6.05-1.74.47-2.18.44-.68-.04-1.06-1.72-2.12-.73-.5.46-.08,1-.12,1.47-.1,1.14-4.02,2.09-1.89,3.82.13.01,1.21-.99,1.44-1.17.3-.23,1.02-.56,1.2-.75.29-.3.15-.93.77-1.18.74-.3.97.23,1.24.2.33-.03,1.16-.36,1.59-.46.56-.13,1.14-.25,1.72-.29ZM348.18,17.46v2.63l2.06,1.37-.34.23.61.22c.68-.72,1.28-1.69,2.36-1.82-.1-1.41-.6-.91-1.42-1.39-.61-.36-1.21-1.38-1.97-1.7l-.04-.26c.87-.72.32-1.88-.76-1.8-.94.06-.7,1.14-1.14,1.15-.23,0-.67-.27-.95-.31-.43-.07-.81,0-1.27-.11-.84-.21-1.3-1.23-2.18-.31.32.95.3,1.93-.11,2.85l.61.39.06-.34,2.46.68,2.01-1.49ZM342.8,17.34c-.16-.09-.53-.65-.55-.77-.05-.24.33-1.02-.41-.95-.66.06-.6.86-.64,1.38,1.1-.18.87,1.09,1.03,1.83.26.06.19-.05.26-.14.42-.53.57-1.26.65-1.92l-.34.57ZM315.3,17.13c-.1-.07-1.54.24-1.8.3-.41.09-1.3.48-1.58.5-.41.02-.54-.53-1.16-.26-.58.25-.33.84-.49,1-.22.23-1.21.75-1.59,1.05-.2.15-1.24.99-1.25,1.13l.37.4c2.05-2.11,4.67-3.32,7.62-3.55l-.13-.56ZM341.43,17.8c-1.05-.09-1.55.84-2.23,1.49-.12.12-.42.27-.46.33-.06.1.22,1.25-.06,1.54,1.57,1.56,1.92-.84,2.93-1.65l-.18-1.71ZM315.77,19.4l-.34-1.44c-1.68.16-3.34.55-4.81,1.39-.4.23-2.56,1.79-2.63,2.07-.05.22.67,1.21.84,1.17.34-.36.71-.66,1.11-.96.25-.19,1.01-.57,1.13-.7.25-.27.1-.95.69-1.13.79-.24,1,.25,1.26.23.73-.07,1.86-.81,2.74-.64ZM318.85,21.82c.82,3.01,4.35,2.17,4.12-.97-.25-3.41-3.9-4.1-4.23-.42l-2.4.12.23,1.37,2.28-.1ZM346.69,20.32l.92-2.06-1.25.99c.08.1.03,1.37.33,1.07ZM343.14,22.49l1.45-2c-.34-1.01-.51-1.64-1.62-1.98-.86,1.23-2.83,2.05-1.91,3.83.49.95,1.48,1.16,2.2,1.81.45.4.63.85.99,1.31,1.78-.63,3.38,1.29,5.05.26,1.24-.76.69-2.4,1.18-3.57-.37-.03-.76-.44-1.09-.46-.16-.01-1.38.35-1.49.45-.24.22-.55,1.87-.62,2.3-.22.05-.22-.08-.32-.19-.42-.46-.87-1.2-1.17-1.75h-2.63ZM346.92,20.43l.97-.46.05-1.49c-.23.14-1.11,1.87-1.03,1.94ZM346.35,20.43l-.29-1.14-1.31-.46,1.6,1.6ZM346.12,20.66c-.09-.22-1.64-1.7-1.72-1.6l.49,1.34,1.23.26ZM315.87,19.65c-.44-.28-2.47.68-2.91.66-.31-.01-.42-.46-.97-.29-.67.2-.45.85-.59,1.08-.1.15-2.31,1.21-2.5,1.79l.4.4c1.82-1.78,4.14-2.89,6.7-3.09l-.13-.56ZM349.33,21.12l-1.34-.89-.95.43c.02.16.16.2.29.22.63.11,1.36.07,2,.23ZM352.88,20.32c-1.84.56-2.67,2.55-2.39,4.33l.56.02c-.32.87.4,1.2-.13,2.1-.39.67-1.74,1.32.36.99,0,.34-.1.86.3,1.01.45.17.24-.6.73-.56l-.34,1.49c1.42-.42,2.99-2.08,3.69-3.35s.75-2.95-1.05-1.8l-.24-.62c.72-.26.22-.71.29-.87.05-.11.72-.81.87-.98-.08-.65-.3-.49-.68-.69-.14-.07-.21-.27-.42-.28-.26-.02-.46.28-.74.24.07.42.68.47.57,1.03-.23.1-.68-.03-.84,0-.1.02-.08.2-.22.26-.13.06-.7.25-.77.19.41-.77.78-1.64.46-2.52ZM316.12,20.43c-2.54.24-4.74,1.25-6.59,2.97l-.05.16.8,1.1h.17c.16-.42,1.79-1.14,1.87-1.28.19-.31-.13-.88.74-1.15.59-.18.77.24,1.17.25.51,0,1.49-.66,2.12-.56l-.23-1.49ZM343.96,25.68c-.32-1.33-1.62-1.65-2.48-2.39-.23-.2-.49-.66-.63-.74-.07-.04-1.13-.28-1.21-.28-.2,0-.36.19-.45.19s-1.34-1.05-1.4-1.2c-.08-.19-.06-.5-.15-.71l-.67,1.07c.4.8,1,1.69,1.03,2.58,4.08,1.03,8.02,2.68,11.5,5.05l.24-.34.5.11h-.46s-.09.29-.09.29l.95.74c.32.06-.04-.64-.06-.74l.23-.06c-.03.56.24.76.69.97-.28.16-.21.41.08.49s1.1-.13,1.43-.24c.48-.16.87-.49,1.35-.65-.7,1.62-.34,3.13,1.66,3.1.77-.01,1.28-.39,2.04.01.16.08.27.26.45.35,1.43.73,2.1-1.2.68-1.48-1.02-.21-3.15.46-3.76.1-.45-.27-.42-1.43.18-1.5-1.22-1.84,1.56-2.86,2.06-.8l-.35-.08c-.23-1.24-1.96-1.04-1.69.34.08.41.42.29.43.65-.6,0-.88.59-.58,1.1l.3.16,3.2-.45c1.12-2.46-1.49-4.27-3.76-3.87-.9,1.08-1.93,2.18-3.33,2.62l-.18-.92-.8.11.24-.28-.23-.82c-.42.2-1.42-.21-1.13-.71.05-.09,1.07-.49.2-.88-.32-.14-.66,0-.95-.06-.09-.02-.03-.21-.24-.24-.42-.05-.9.06-1.35-.02-.65-.11-1.33-.6-2.11-.65-.5-.03-.91.18-1.4.08ZM346.01,20.78l-1.14-.07-.8,1.09c.09.08,1.6-.64,1.8-.77.11-.07.21.01.15-.26ZM349.33,21.35l-2.4-.34c.14.25.69.77.97.79l1.44-.45ZM308.21,22.38c-.24-.29-.73-1.23-1.09-1.26-.18-.02-.38.11-.57.11-1.7.03-3.4.15-5.1.23l.13,2.56c.12.35,2.07.42,1.36-.61l1.95-.12v.69s.69,0,.69,0v-1.49s2.63-.11,2.63-.11ZM344.06,22.26l1.6-.17.46-.97c-.66.4-1.51.61-2.06,1.14ZM347.04,23.41c.21-.1.54-1.33.53-1.43s-.76-.86-.88-.74l.34,2.17ZM346.58,21.35c-.27-.06-.18.03-.26.15-.15.23-.25.58-.4.83l.88,1.09-.23-2.06ZM333.87,23.3l-3.4-1.24c-.19-.02-.74.51-1.01.51s-.69-.48-.93-.51c-.4-.04-2.79,1.31-3.48,1.29l8.82-.06ZM316.46,22.15c-.16-.17-2.07.66-2.37.67-.26,0-.42-.57-1.15-.24-.48.22-.25.74-.48,1-.37.41-2.49,1.03-1.55,1.77,1.55-1.38,3.38-2.26,5.45-2.57l.11-.63ZM316.57,23.07c-1.96.18-4.11,1.03-5.37,2.56l.39.41c1.39-1.19,3.13-2.12,4.98-2.28v-.69ZM304.82,25.05c-1.8,1.8,1.84,6.19,4.03,4.09.95-.92.67-1.9.08-2.92l1.22-1.27-.79-1.13-1.38,1.43c-.83-.64-2.35-1.01-3.17-.19ZM327.43,23.79c-27.85,1.51-43.28,33.52-26.98,56.31,14.73,20.58,45.78,19.65,59.24-1.76,15.43-24.54-3.46-56.1-32.25-54.54ZM350.7,24.9c-.57-.04-.83.25-.23.52l-.42.8.48.4c.76-.35,0-1.1.17-1.72ZM306.95,30.96l-1.95-.57c.52,1.75-.6,3.11-2.41,2.75.52,1.41-.45,1.06-.67,1.27-.05.05-.26,1.05-.35,1.3-.14.38-.39.7-.46,1.08,1.79-2.11,3.74-4.04,5.84-5.84ZM353.79,30.51l-1.83.51c2.13,1.61,3.92,3.59,5.72,5.55l-.71-2.15c-.88,0-.88-.56-.67-1.28-1.78.37-2.77-.92-2.52-2.63ZM301.69,34.05c.96.47,1.11-.87.16-1.02-.61-.1-.84-.01-1.05.54-.47,1.2-.42,3.96-1.9,4.4-.62.19-.71-.1-1.14-.1-.53,0-.91.3-.49.77,2.58.53,4.22-2.37,4.42-4.59ZM358.88,37.79c.61.61,2.81,1.71,2.93.34-.44-.52-.97-.07-1.41-.08-.74,0-1.26-.72-1.53-1.33-.37-.82-.61-3.06-.89-3.46s-1.24-.32-1.46.14c-.27.57.18.97.72.66.11,1.21.78,2.87,1.64,3.74Z"/>
        <path d="M327.43,32.48c21.44-1.41,36.19,21.23,25.58,40.1-10.02,17.83-35.6,18.41-46.45,1.06-10.68-17.07.82-39.83,20.87-41.15ZM303.44,58.73c.14.14.37.22.55.3h24.24c.42-.16.74-.39.88-.84l-.03-24.46c-.08-.2-.5-.6-.71-.67-.65-.2-2.49.09-3.24.21-11.39,1.78-20.58,11.38-21.95,22.81-.09.78-.36,2.05.25,2.64ZM330.63,33.05c-.51.11-.92.78-.89,1.29l.06,23.87c.29.51.75.93,1.38.91l23.75-.08c1.33-.34.93-2.12.81-3.17-1.27-10.81-10.01-20.1-20.6-22.33-1.03-.22-3.57-.7-4.5-.49ZM304.06,59.71c-.86.2-1.03.83-1.01,1.64.25,8.73,6.59,17.58,14.2,21.51,2.65,1.37,7.63,3.01,10.6,2.93.52-.01,1.04-.33,1.27-.81v-24.5s-.68-.69-.68-.69l-24.38-.08ZM330.74,59.71c-.62.19-1.02.61-1,1.29l.06,23.87c.17.46.4.71.88.83.68.18,2.75-.16,3.55-.3,11.14-1.97,20.21-11.43,21.49-22.7.11-1,.49-2.35-.59-2.93l-24.4-.06Z"/>
        <path d="M335.93,30.62l.29.79c.29.49,1.06.66,1.49.24.84-.82-.71-1.94-.92-2.75-.45-1.73,1.35-2.03,2.57-1.36l-.1.9c-.23-.07-.18-.43-.34-.63-.31-.39-1.21-.43-1.43.06-.45.99,2.05,2.21.91,3.77-.4.54-1.08.56-1.7.46-.33-.05-.58-.31-.87-.39-.44-.12-1.05-.11-1.42-.3-.81-.42-.91-2.17-1.97-2.27-.26-.03-.12.02-.17.16-.09.28-.23,1.47-.11,1.69.07.14.27.02.23.2l-1.6-.11.46-.19c.06-.63.73-4.23.52-4.51-.11-.15-.43,0-.41-.22,1.05.16,3.55-.03,3.3,1.63-.12.78-.8.93-.96,1.23-.1.18.75,1.48.93,1.71s.86,1.08,1.13.69l.17-.8ZM332.26,28.79c2,1.01,2.22-2.62.28-2.07l-.28,2.07Z"/>
        <path d="M335.01,87.72c.04.18-.21.11-.29.22-.14.21.13,2.25.19,2.68s.14,1.32.3,1.65.43.13.49.37l-1.72.11c-.04-.18.21-.11.29-.22.23-.35-.2-1.8-.17-2.29l-2.63.35c.17.41.14,2.14.53,2.27.17.06.51-.09.5.13l-2.06.23c-.02-.22.3-.07.41-.22.18-.24-.32-4.4-.52-4.54-.18-.13-.57.08-.58-.16l1.72-.11c-.42.52-.03,1.42,0,2.05l2.63-.34c-.18-.48-.1-1.18-.25-1.63-.1-.3-.39-.2-.43-.42l1.6-.11Z"/>
        <path d="M350.93,40.46c.22.05.28.08.49-.01.24-.1,3.08-2.38,3.18-2.56.12-.2.07-.36.16-.52.94,1.32,2.78,2.71,1.99,4.51-.52,1.19-1.94,1.8-3.16,1.35s-1.83-1.83-2.67-2.77ZM355.48,38.67c-.11-.1-.27-.18-.42-.1-.53.62-2.64,1.85-2.93,2.47-.23.49.53,1.34.93,1.58,1.4.82,3.27-.72,3.22-2.18-.02-.46-.46-1.47-.81-1.77Z"/>
        <path d="M342.46,34.05c-.05-.07.35-.31.44-.42.33-.4,2.04-3.09,2.13-3.46.03-.12-.08-.33-.05-.35l2.58,1.6c1.71,1.61.33,4.41-1.94,4.23-1.25-.1-2.08-1.11-3.15-1.6ZM345.83,30.65c-.12,0-.3.28-.38.39-.24.33-1.81,2.89-1.83,3.09-.07.73,1.67,1.29,2.33,1.07,2.02-.66,2.05-3.92-.12-4.55Z"/>
        <path d="M310.96,87.95c.02-.19.27-.1.46-.28.25-.23,1.77-2.96,1.97-3.41.08-.17.1-.35.09-.54.13-.13,2.42,1.27,2.67,1.51,1.74,1.64.27,4.36-1.93,4.22-1.33-.09-2.08-1.11-3.27-1.49ZM314.18,84.41c-.24.82-1.86,2.89-1.85,3.6,0,.82,1.79,1.32,2.57.84,1.89-1.17,1.44-3.9-.71-4.44Z"/>
        <path d="M359.95,61.09c3.92-.5,3.94,5.72.21,5.34-3.15-.33-3.11-4.96-.21-5.34ZM359.72,62c-.57.1-1.13.49-1.41,1-1.62,2.99,4.99,3.67,4.27.2-.22-1.09-1.94-1.36-2.87-1.2Z"/>
        <path d="M302.46,74.02c1.13-.19,2.02.1,2.71,1.01,2.18,2.92-2.04,5.99-4.15,3-1.11-1.58-.53-3.68,1.44-4.02ZM303.61,74.47c-1.64.12-3.59,2.39-2.04,3.82,1.32,1.21,3.89-.74,3.65-2.38-.11-.78-.76-1.5-1.6-1.44Z"/>
        <path d="M301.68,67.81l-2.06,4.92c.56-.37,2.62-.91,2.98-1.31.17-.19.11-.41.11-.63l.57,1.37-.48-.21-4.33,1.58,2.06-4.92c-.83.49-2.14.75-2.9,1.27-.17.11-.29.22-.3.44l-.46-1.03s.19.11.3.11c.73.03,4.34-1.77,4.51-1.6Z"/>
        <path d="M315.66,28.9c0,.19-.01.39.05.58.47,1.32,1.43,2.65,1.89,4l-5.04-1.6c.41.54,1.12,2.52,1.55,2.86.17.14.31.13.51.12l-1.14.57s.11-.19.11-.3c-.01-.76-2.14-4.13-1.94-4.39l5.04,1.72-1.66-2.98-.28-.11.91-.46Z"/>
        <path d="M309.93,32.11l-.21.38c.87,1.45,3.3,3.17,1.54,4.89-.85.83-1.85.91-2.75.11-.6-.53-1.2-1.79-1.77-2.24-.27-.22-.43-.12-.7-.22l1.26-.86s-.1.17-.08.27c.05.24,1.69,2.35,1.97,2.59,1.22,1.08,2.77-.08,2.14-1.45-.14-.3-1.68-2.37-1.91-2.55-.17-.14-.31-.13-.51-.12l1.03-.8Z"/>
        <path d="M358.15,56.48l-.34-1.49c.62.04,1.04-.5,1.58-.71l-.21-1.5-.14-.12c-.59-.1-1.19-.41-1.69.04l-.11-1.26c.2-.03.09.22.17.34.28.41,4.54.84,5.21,1.32,0,.26-3.93,2.22-4.38,2.95-.07.11-.08.29-.09.43ZM361.24,53.05l-1.72-.23.11,1.14c.11.12,1.26-.53,1.46-.66.11-.07.2.01.15-.26Z"/>
        <path d="M328.82,88.31l-.1,1.25c-.19-.05-.12-.39-.24-.61-.32-.62-1.36-.72-1.98-.63-1.7.24-1.88,2.93-.76,3.94.5.46,1.65.74,2.24.4.24-.14.29-.48.51-.58l-.22.98c-2.13.42-4.61-.62-4.08-3.16.46-2.19,2.92-2.14,4.63-1.59Z"/>
        <path d="M357.31,74.95c1.45,1.44.38,3.56-.95,4.63l-.96-.67c.79.33,1.38-.12,1.81-.76,1.68-2.54-3.24-4.68-4.19-1.67-.19.61,0,.62.2,1.17l-.74-.68c.42-2.18,2.99-3.85,4.83-2.02Z"/>
        <path d="M361.46,49.38l-1.13.35c.88-.59.81-1.38.36-2.25-1.21-2.39-5.48.19-3.71,2.68.26.36.62.5,1.06.49-.1.23-.76.27-.95.21-.38-.11-.91-1.6-.97-2.01-.4-3.05,3.36-4.18,4.76-1.67.18.32.79,1.96.58,2.2Z"/>
        <path d="M351.96,34.4c-.45,1.78-1.4,3.54-1.49,5.38l-.9-.76.63-1.52c.02-.24-1.03-1.05-1.26-1.04-.32.02-1.41.59-1.27,1.03l-.86-.74c.39.03.53-.02.88-.15.51-.19,4.11-2.36,4.27-2.19ZM350.36,37.03l.57-1.72-1.6.8c-.05.07.92,1,1.03.91Z"/>
        <path d="M354.02,82.69l-5.27-1.89.86-.86c.27.46.99.57,1.47.79l1.09-1.16c-.27-.45-.3-1.23-.9-1.34l.69-.68c-.03.3.04.55.14.83.52,1.43,1.4,2.87,1.92,4.32ZM353.11,81.66l-.74-1.72c-.13.18-.99.85-.86,1.03l1.6.69Z"/>
        <path d="M299.62,46.07c-.05.21-.47.09-.69.16-.42.13-.95,1.09-1.02,1.5-.25,1.58,1.4,2.51,2.79,2.33,1.28-.17,2.49-1.96,1.33-2.96,1.32.28.92,1.21.48,2.14-.63,1.32-1.86,2.07-3.31,1.55-2.15-.77-1.98-3.27-.77-4.82.37-.47.7.1,1.2.11Z"/>
        <path d="M309.36,80.28c-.11,0-.24.01-.33.07-.4.24-2.95,2.68-3.08,2.99-.04.11-.02.25-.03.37-.4-.51-1.55-1.32-1.69-1.91-.32-1.38,1.21-2.08,2.26-1.35.33.32-.43.04-.6.07-.51.09-1.12.77-1.12,1.3,0,.28.37.97.69.81l2.93-2.93-.17-.68,1.14,1.26Z"/>
        <path d="M307.41,40.69l-.74,1.01-1.66-.5-.87,1.1c-.1.24.66,1.49,1.09,1.37l-.69.91.08-.38-2.71-4.54c.19-.17,4.17,1.1,4.89,1.14.24.01.39-.1.61-.11ZM304.66,41.03l-1.72-.46.97,1.49.74-1.03Z"/>
        <path d="M325.62,26.27c-.19.25-.36.21-.51.57-.22.51-1.01,4.8-1.26,4.8-.75-.59-2.32-4.02-2.92-4.29-.21-.1-.56.04-.57-.17l1.95-.34c.03.19-.3.13-.34.29-.05.2,1.63,2.9,1.95,3.26l.69-3.78-.46-.11,1.49-.23Z"/>
        <path d="M345.43,83.49l.23.8c-.46-.47-1.08-.04-1.48.3l.69,1.52.42-.08,1.06-.71.23.8c-.43-.46-.92.13-1.38.3-.04.25.78,1.69,1.01,1.75.38.11,1.44-.48,1.29-1.01l.32.63-2.55,1.43c-.14-.06.13-.2.15-.31.06-.21-1.86-3.75-2.05-3.86s-.57,0-.57-.11l2.63-1.43Z"/>
        <path d="M329.4,26.16v.91c-.2.01-.08-.25-.23-.4-.25-.27-1.02-.14-1.38-.17v1.83c.51-.06,1.18.19,1.55-.23l-.06,1.03-.3-.44h-1.19s0,1.65,0,1.65c0,.67,1.29.63,1.61.35.16-.15.02-.42.23-.4v.8s-3.09.11-3.09.11c-.02-.22.3-.07.41-.22.13-.18.11-4.28,0-4.47s-.5-.12-.52-.34h2.98Z"/>
        <path d="M321.38,87.04l-.46.91c.18-.84-.67-.83-1.26-1.03l-.57,1.72c.43.15.87.25,1.32.35.14.03.21-.09.17.16l-.34.63c.19-.5-1.05-.9-1.27-.75-.13.37-.7,1.6-.52,1.9.16.25,1.09.53,1.41.38.18-.08.07-.3.25-.27.02.23-.1.56-.28.7-.26.2-2.3-.87-2.81-.81-.01-.2.26-.1.41-.22s1.26-3.24,1.37-3.67c.06-.23.06-.46.05-.69l2.52.69Z"/>
        <path d="M296.53,63.01l-.35.4.12,1.43c.61-.23,4.09-.56,4.3-.91.12-.2-.06-.56.17-.57l.23,1.83c-.19.05-.05-.2-.19-.23-1-.24-3.17.61-4.28.63-.12.07.15,1.3.23,1.46.11.22.45.08.46.31h-.92c-.03-1.42-.38-2.84-.69-4.23l.92-.11Z"/>
        <path d="M358.15,57.51c.18-.04.07.17.2.22.96.43,3.25-.24,4.38,0l-.12-1.52-.46-.31.9.13.13,4.22h-.92c.04-.22.35-.13.44-.42.11-.35-.03-.91.02-1.3l-4.28.13-.3.67v-1.83Z"/>
        <path d="M300.54,58.43c-.2,0-.14-.31-.34-.4-.12-.06-.88-.15-1.09-.17-1.03-.11-2.17-.09-3.21-.13l-.28.24.11-2.86.92.12c.01.25-.35,0-.47.18-.12.17-.36,1.54-.04,1.54h1.66v-1.49s.8.17.8.17c-.7.07-.4.95-.46,1.43.61-.16,1.65.26,2.15.04.18-.08.07-.29.25-.27v1.6Z"/>
        <path d="M340.62,86.01c-.06.2-.06.31,0,.51.1.4,1.24,3.49,1.4,3.59.37.23,1.92-.29,1.59-1.01.21.03.32.62.3.75-.05.29-2.49,1.04-2.93,1.19l.33-.29c.05-.2-1.21-3.48-1.42-3.83-.13-.22-.22-.43-.52-.45l1.26-.46Z"/>
        <path d="M361.81,68.73l-.34,1.37c-.24-.2-.22-.34-.57-.51-.39-.19-3.17-1.11-3.5-1.1-.58.03-1.01,1.49-.4,1.84l-.79-.41.9-2.68c.21.14.34.28.57.4.38.19,3.62,1.33,3.82,1.29.1-.02.26-.26.3-.2Z"/>
        <path d="M360.32,72.85l-.68,1.49c.11-.58-.45-.69-.88-.9-1.01-.5-2.1-.85-3.1-1.37l-.44.33-.06-.17.68-1.32c0,.2.02.31.18.45.22.18,3.67,1.73,3.89,1.72.17,0,.36-.28.4-.23Z"/>
        <path d="M342.8,28.79c0,.25-.4.03-.55.13-.19.12-1.58,3.98-1.51,4.26l.23.19-1.6-.46c-.01-.21.28-.07.46-.17.11-.07.18-.31.25-.44.31-.6,1.19-2.78,1.31-3.39.05-.24.05-.36-.07-.57l1.49.46Z"/>
        <path d="M319.09,27.76c-.07.6,1.09,4.25,1.37,4.41.14.08.31.05.46.06l-1.6.51c.21-.17.24-.28.21-.54-.04-.29-1.07-3.49-1.21-3.72-.17-.28-.26-.28-.6-.26l1.37-.46Z"/>
        <path d="M337.88,86.92l-.21.48c.25.54.97,3.87,1.24,4.04.15.1.4.04.58.05l-1.43.46c-.28.05-.03-.3-.08-.6-.07-.44-1.01-3.75-1.17-3.88-.11-.09-.27-.1-.41-.11l1.49-.46Z"/>
        <path d="M301.11,52.71c.18-.03.12.15.1.27-.05.4-.28.79-.22,1.21-.18,0-.11-.21-.3-.32-.32-.19-3.3-.88-3.78-.92-.27-.03-.48-.03-.73.1l.23-1.49c.21.01.08.29.28.47.1.09.28.12.41.17.46.15,3.4.86,3.74.85.21,0,.26-.17.28-.34Z"/>
        <path d="M304.21,45.27l-.51,1.03c-.31-.35-.7-.61-1.1-.85-.63-.39-1.92-1.21-2.54-1.47-.38-.15-.68.14-.65-.14l.68-1.09c-.02.21.04.3.18.45.28.28,2.84,1.72,3.32,1.94.2.09.39.14.62.13Z"/>
        <path d="M297.05,61.06c-.05,0-.19.1-.34.12-.24.03-.58-.07-.79,0-.2.07-.1.35-.3.33l-.06-1.72.19.56.15.02c1.22-.08,2.58-.01,3.78-.12.17-.02.4-.05.55-.12.13-.06.02-.27.2-.22l.11,1.6c-.2.03-.1-.46-.29-.46-1.03,0-2.2-.07-3.21,0Z"/>
        <path d="M327.57,14.14h3.77c-.17,1.26,1.82,1.43,1.85.29.01-.49-.58-.8-.67-1.29-.29-1.5,2.5-1.63,2.71.17.06.52-.5,1.17-.39,1.4l1.96,2.18c.22.42-.3.52-.48.72-.33.38-.58.83-.92,1.21-.11.03-.75-.21-.84-.28-.2-.17-.17-.68-.64-.74-.56-.08-.67.51-.93.56l-.6-.23c-.05-.08.2-1.45.27-1.58.14-.27.94-.6,1.14-.92.26.57-.83.78-.95,1.11-.04.12-.15.79-.18.98-.1.81.59-.05.72-.09,1.28-.42,1.17.99,1.88.88.09-.01.87-1.31,1.19-1.44l-1.98-2.35c-.14-.42.87-1.1.18-2-.49-.63-2.2-.68-1.93.43.07.27.48.56.58.8.47,1.15-.72,1.79-1.72,1.37-.48-.21-.42-.84-.67-.93l-3.06-.02c-.23,1.74-3.02,1.15-2.33-.37.13-.29.59-.66.64-.97.14-.89-1.41-.93-1.89-.45-.78.78.18,1.71.06,2.17l-1.92,2.3,1.21,1.44c.71.05.51-.74,1.15-.88.49-.11.9-.02,1.13.44l.39-.12c-.24-.32-.14-.99-.29-1.26-.14-.25-1.18-.48-.92-1.03l1.18.82.26,1.63c-.78.6-.76-.03-1.16-.21-.9-.41-.93,1.06-1.93.96-.28-.72-.92-1.23-1.4-1.76l2.01-2.35c.12-.36-.71-1.18-.06-2.11s2.72-.82,2.38.66c-.12.5-.9.81-.6,1.45.4.88,2,.49,1.77-.57Z"/>
        <path d="M328.45,15.3c.15-.04.73.16,1.01.15.27,0,.73-.2.9-.15.13.04.84,1.13,1.45.96l.1.13c.05,1.63-1.17,3.05-2.38,4-1.16-.49-2.46-2.07-2.61-3.35-.14-1.16.32-.62.99-1.12.21-.16.41-.57.54-.61ZM328.57,15.65c-.25.07-.89.89-1.41.89,0,1.46,1.09,2.79,2.28,3.54,1.17-.75,2.05-2.09,2.24-3.47-.04-.16-.62-.3-.83-.43-.22-.14-.43-.48-.62-.53-.34-.1-.55.09-.79.08-.3,0-.55-.18-.88-.08Z"/>
        <path d="M323.79,22.38c.31-.91.11-1.59.01-2.5l.83-.25c.14.02.23.94,1.14.67.51-.15.22-.83.33-1.17.08-.23.67-.35.9-.25.26.12,1.2,1.5,1.6,1.73.05.27-1.39,1.04-1.68,1.16-.98.42-2.06.62-3.12.6ZM324.13,22.15c.42-.17.87-.06,1.29-.14s2.79-.96,2.71-1.39c-.35-.25-.98-1.34-1.25-1.51-.16-.1-.4.1-.57.07.5,1.37-1.12,1.94-1.79.79l-.45.12c.17.72.23,1.33.06,2.06Z"/>
        <path d="M335.12,19.87c-.25.88-.27,1.62-.11,2.51-1.68.03-3.47-.52-4.69-1.68l1.56-1.88c1.43.02.71.53.85,1.07.1.39.66.53,1.01.37.47-.22.25-.95,1.37-.39ZM332.48,19.19c-.07-.11-.36-.12-.5-.03-.07.05-1.13,1.22-1.2,1.33-.07.1-.16.12-.11.29,1.25.78,2.46,1.28,3.95,1.37l.13-.23v-1.83c-.45-.37-.62.38-1.05.46-1.55.3-1-1.01-1.21-1.35Z"/>
        <path d="M320.66,19.55c1.3-.14,1.63,2.59.32,2.72s-1.52-2.59-.32-2.72ZM321.24,21.89c.58-.48.29-2.3-.69-2.01-.91.28-.29,2.82.69,2.01Z"/>
        <path d="M306.35,26.06c1.28-.27,2.47,1.78,1.26,2.3s-2.72-1.98-1.26-2.3ZM306.46,26.29c-.92.13-.34,1.92.89,1.82,1.17-.1.14-1.97-.89-1.82Z"/>
        <path d="M311.99,57.63c-.12-.89.8-1.38,1.37-1.9-.34-1.01-1.2-1.83-.11-2.68-3.05-.53-6.11-2.37-5.1-5.95.37-1.32,1.66-2.61,3.09-2.64.52-.01,1.22.24,1.72.24.95.01,1.33-.4,2.28.34.59.46.52,1.03,1.55.8-.16.42-.66.27-.94.37-.83.32-1.11.71-2.16.49-.54-.11-.9-.57-1.42-.64-2.06-.25-3.06,1.14-2.64,3.1.21,1.01,1.8,1.83,2.72,2.09.12.03.36.17.43.02-1.44-.98-2.62-1.87-2.29-3.83l7.56.11c.06.83.01,1.52-.48,2.21-.6.86-1.96,1.18-2.39,2.2,0,.3.69.51.41,1.43-.04.15-.25.29-.25.39,0,.13.24.35.19.68-.05.39-.58.36-.44,1.01.13.62,1.71,1.15,1.47,2.14h-4.58ZM315.66,46.07c-.12-.59-.88-1.17-1.44-1.25-.46-.07-.89.12-1.37.12-.63,0-1.25-.2-1.95-.12-1.18.14-2.22,1.3-2.52,2.4-.95,3.44,2.13,5.1,4.98,5.61-.02-.32.11-.82-.16-1.04-.2-.16-1.8-.6-2.32-.89-1.31-.73-1.68-1.53-1.53-3.05.14-1.33,1.06-2.02,2.36-2.11,1.03-.07,1.56.77,2.39.8.52.02,1.07-.28,1.54-.46ZM317.83,47.78h-7.1c-.4,2.11,1.71,2.48,2.57,3.55.41.52.22.89.29,1.43.02.17-.06.18.17.17,1.34-.07.92-.92,1.48-1.61.9-1.08,2.95-1.46,2.58-3.54ZM315.28,53.47c.26-.32.19-.93-.19-1.11-.3,1.14-2.54.52-2.06,2.06.26,0,.4-.22.65-.32.42-.16,1.32-.28,1.6-.63ZM315.2,53.96c-.49.16-2.51.42-1.77,1.26l1.72-.56c.27-.21.11-.42.05-.69ZM312.34,57.28h3.89c-.14-.95-1.51-1.03-1.43-2.18-.99-.06-.92.44-1.37.92-.37.4-1.09.65-1.09,1.25Z"/>
        <path d="M323.22,36.46v4.81h4.58v2.75h-4.58v13.62h-2.63v-13.62h-4.47v-2.75h4.58l-.11-4.81h2.63ZM322.99,36.68h-2.06v4.75l-.17.17h-4.41v2.06h4.41l.17.17v13.56h2.06v-13.73h4.58v-2.06h-4.58v-4.92Z"/>
        <path d="M316.69,69.53v-1.03s.52-.11.52-.11c.06-.23.06-.48.08-.72,0-.07.21-.3-.08-.2-.21.07-1.96,1.06-2.11,1.21-.35.33-.3.64-.82.9-.42.21-.78.21-1.25.18-.13.47.29.59.44.87.09.17.3,1.78.35,2.17.15,1.17.19,2.36.35,3.53-.13,1.11-2.45,1.33-2.41-.33.02-.94.22-2.47.36-3.43.05-.32.45-.73.17-1.21-.15-.26-1.79-.65-2.24-.85-1.54-.72-2.85-2.01-2.77-3.81l-2.15-1.22c.19-.27.19-.1.38-.04.28.1,1.67,1.01,1.8.9l.33-1.36-1.59-1.1c.21-.27.17-.11.35-.01.5.29.94.67,1.42.98.06-.37,1.02-.96,1.07-1.04.24-.41-1.23-1.22-1.24-1.7.16-.16,1.3,1.19,1.49,1.32l1.49-.52c.16-.18-.57-1.22-.64-1.48-.05-.2-.03-.28.18-.34l.8,1.66c1.28-.31,2.47-.11,3.67.4.08-.06.6-1.53.77-1.8.13-.21.1-.16.37-.14l-.91,2c0,.36.81.61.68,1.08l-1.03-.46c-.33.5-.13.87-.16,1.3-.02.25-.24.54-.13.76l3.83-3.78c.05.23-.05.31-.17.46-.75,1.01-2.58,2.34-3.16,3.36-.19.33-.15.87-.45,1.21.29.21,1.7-.94,2.01-1.14l-.29-.8c.06-.05,1.22.05,1.52-.03.53-.14,1.47-1.19,1.98-1.34.21-.06.22.08.12.23-.16.23-.93.63-1.22.85-.13.1-.28,0-.22.29.56.15.82-.25,1.26-.4.96-.33,1.87-.43,2.86-.11.21.07.92.51.98.51h2.69c.11.72-.29.61-.57.86s-.34.56-.82.7l.25,1.57.45.26v.96h-3.33l-.11,3.66c.79-.39.94-1.44,1.54-2.06s1.82-1.03,2.63-.9c.55.09,1.08.67,1.67.74l-1.83.81c-.31.11-.62-.15-.88-.15-.81-.01-1.42,2.38-2.33,2.66.8.9.9,2.51-.34,3.03v.16c.79.73.65,1.33.25,2.2-.07.17-.32.32-.34.45-.02.14.1.36.1.56-.03.74-.61.62-.75.86-.19.32.18.98-.55,1.02-.42-.14-.23-.75-.45-.98-.12-.13-.6-.18-.72-.37-.21-.35.08-.77.04-.97,0-.04-.48-.41-.6-.65-.35-.74-.3-1.48.39-1.99-1.21-.88-1.38-2.3-.23-3.32-.93-.45-1.11-1.44-1.62-2.15-.67-.94-1.04-.2-1.73-.33-.48-.09-1.06-.81-1.69-.78.05-.2.42-.1.66-.2.69-.29.65-.92,1.84-.64,1.94.46,1.89,2.22,3.46,3.01l-.11-3.66h-3.55ZM312.28,63.46c.55-.07,1.36,0,1.95,0,.06,0,.31.25.4.06-2.95-2.02-8.46.78-6.81,4.63.33.76,1.38,1.63,2.11,2.01,1.03.53,3.07.5,2.69,2,.95.64.91-1.04.57-1.48-.27-.35-1.62-.67-2.08-.9-3.19-1.59-2.2-5.86,1.17-6.31ZM314.11,63.69h-1.72c-.12,0-.48.23-.68.22-.47.31.95.88,1.02,1.15.19-.19-.16-.78.29-.69v.69c.42-.37,1.03-.56,1.21-1.14l-.12-.23ZM311.42,64.15c-.15-.11-1.07.33-1.02.61.14.14,1.11,1.25,1.25,1.1l-.23-1.71ZM312.79,66.21c-.07-.59-.33-1.42-1.03-1.49-.09.69.27,1.44,1.03,1.49ZM313.14,66.21c.75-.12,1.02-.79.91-1.49-.69.19-.95.81-.91,1.49ZM318.98,65.41h-2.63l.17.34h2v.23h-1.6l.19.32,1.41.02c.09.45-.56.1-.8.28-.22.12.03.27.15.32.4.16.82.07,1.23.09.19.15-.01.21-.17.23-.4.05-.82-.02-1.21-.07l-.22,1.33h7.1l-.23-1.37c-.37.15-.92.17-1.32.12-.17-.02-.35-.09-.17-.23.48-.04,1.38.2,1.49-.46-.13-.11-1.04.23-.92-.23.21-.16,1.62.32,1.6-.34h-1.6v-.23h2s.28-.26.29-.34h-2.75c-.06.12.15,1.16-.17,1.03-.23-.09-.16-1.05.06-1.26-1.18-.54-2.35-.64-3.55-.06v1.31c-.43.08-.13-.76-.34-1.03ZM311.65,67.12c-.38-.81-.69-1.71-1.54-2.17-.21.27-.68.79-.46,1.14.12.2,1.75,1.21,2.01,1.03ZM311.54,66.1c-.01.72.51,1.08,1.09,1.37.46-.57-.45-1.45-1.09-1.37ZM314.4,66.1c-.67-.06-1.32.59-1.26,1.26.75.07,1.16-.59,1.26-1.26ZM317.35,66.7c-.18-.17-.62-.17-.71-.6-.1.03-1.69,1.09-1.74,1.17-.14.22-.14.85-.49,1.11.2-.01.37.12.57.06.33-.11,1.88-.99,2.22-1.22.21-.15.41-.29.16-.52ZM311.42,68.38c-.23-1.1-1.04-1.53-1.95-2.06.04.34-.06.76,0,1.09.08.4,1.64,1.3,1.94.97ZM312.68,68.61c.31-.34-.89-1.71-1.37-1.09.25.59.71.99,1.37,1.09ZM314.51,67.35c-.68,0-1.15.5-1.37,1.09.03.38.96-.16,1.09-.29.23-.22.31-.49.28-.8ZM311.42,69.53c-.45-.62-.84-1.12-1.6-1.37-.21.22,1.22,1.49,1.6,1.37ZM312.68,69.53c0-.68-.9-.99-1.49-.91,0,.68.9.99,1.49.91ZM314.63,68.61c-.59-.08-1.49.23-1.49.91.62.07,1.47-.19,1.49-.91ZM325.05,68.73h-8.13l.02.39.16.19h7.96v-.57ZM321.61,69.53h-1.15c.37.98-.14,2.85.13,3.7.08.24.61.34.84.42.23-1.36.17-2.74.17-4.12ZM321.27,77.08c.65.48,1.55-.2,1.69-.88.42-2.09-2.19-2.2-3.35-3.12-.86-.68-.87-1.64-2.04-2.31-.72-.41-1.82-.74-2.13.29.52.73,1.19.25,1.76.3.9.08,1.23,1.83,1.98,2.38s3.55.89,3.11,2.34l-1.01,1ZM326.63,70.8c-1.08-.81-2.55-.09-3.3.84-.35.44-.53,1.03-.87,1.42-.24.28-1.32.82-.31,1.02s1.6-2.09,2.32-2.55c.6-.39,1.47.26,2.15-.42v-.31ZM313.48,72.51c-.37.03-1.06-.2-1.14.28l-.34,3.43c.05.86,1.68.97,1.91.1l-.43-3.81ZM321.38,79.71c1.06.7,1.6-1.24.91-1.88-.55-.51-2.61-.91-2.47-2.01.08-.62,1.07-1.05.36-1.38-.94-.44-1.55,1.47-1.03,2.29.63,1.01,3.14,1.12,2.78,2.33-.11.37-.59.29-.55.65ZM320.7,74.68v1.89c0,.22.52.18.67.04.1-.86.51-1.76-.67-1.92ZM321.5,81.2c.09.11.75-.33.52-.8-.86-.69-2.93-1.01-1.44-2.35-.68-.71-1.34.15-1.25.9.12,1.02,1.34,1.26,2.16,1.45v.79ZM320.81,79.48c.65.05.63-.57.56-1.07l-.56-.19v1.26ZM320.58,80.4c-.87-.07-.69.65-.06.92l.06-.92ZM320.93,80.51v1.72c.16.03.28-.04.32-.19.09-.27.18-1.55-.32-1.53Z"/>
        <path d="M333.18,65.64l2.16,5.09c-.16,2.76-5.18,2.3-4.31-.43.49-1.54,1.5-3.08,1.92-4.66-1.66.06-1.34-2.35.12-1.9.6.19.41.8.96.87,1.06.14,5.52-.34,6.09-1.26-1.07-2.87,3.34-2.87,2.27,0,1.81,1.23,4.16,1.28,6.29,1.26.98-2.32,3.05.37,1.34.97-.23.08-.64-.06-.58.22l2.07,5.15c-.52,2.3-4.21,2.16-4.47-.22l2.18-5.1h-6.53l-.34,5.95c.9-.39,1.46.23,2.18.51.97.38,1.82.48,2.86.4-.28.54.33,1.32.34,1.54.02.53-3.56,4.89-3.95,5.78-.33.28-1.56-.25-2-.34-.23.47.14,1.78-.52,1.84-.96-.1-.21-1.46-.7-2.07-.08-.05-1.38-.33-1.45-.31-.11.02-.3.27-.55.35-1.15.37-1.14-.55-1.55-.7-.9-.34-2.58-.33-3.61-.63-.16-.05-.49-.08-.53-.26.2-.59.1-1.02-.11-1.57l3.67-5.68c.19-.11.97.39,1.27.48.42.13,2.23.38,2.45.08l-.3-5.38h-6.64ZM332.67,65.41h7.39l1.09,15.68.23-.22,1.09-15.45h7.27c.93,0,.82-1.72-.17-1.44-.55.15-.51.79-.58.86-.1.09-2.44.03-2.78,0-1.48-.15-2.95-.55-4.19-1.36.19-.53.46-.61.27-1.24-.53-1.68-3.01-.34-1.78,1.07-1.81,1.68-4.7,1.54-7.02,1.55-.46-2.24-2.29.26-.81.57ZM332.95,70.56v-4.01l-1.72,4.01h1.72ZM335.01,70.56c-.68-1.24-1.01-2.75-1.83-3.89v3.89h1.83ZM349.21,70.56v-3.89c-.18.03-.22.21-.28.35-.56,1.08-.97,2.41-1.43,3.55h1.72ZM351.16,70.56l-1.72-3.89v3.89h1.72ZM335.01,70.79h-3.72l-.16.27c.59,1.81,3.7,1.69,3.88-.27ZM340.17,71.36h-1.89c-.37,0-1.6-.65-1.76-.56l-3.45,5.31c.78.64,1.73.62,2.69.63.18,0,.38-.11.57-.11.7,0,1.16.47,1.72.8l2.18-3.54-.06-2.52ZM351.1,70.79h-3.72c.11,1.96,3.31,2.07,3.88.27l-.16-.27ZM347.04,72.85c-.62,0-1.26-.1-1.86-.26-1.01-.27-1.87-1.09-2.9-.66l-.38,6.17c.48.22,1.07.15,1.53-.1l3.61-5.14ZM347.15,73.3c-.12.01-.2.15-.28.24-.65.79-2.97,3.91-3.32,4.69-.17.38-.27.97.11,1.25l3.73-5.42-.23-.75ZM340.4,74.33c-.27-.06-.19.05-.26.15-.62.9-1.06,1.94-1.69,2.82.72-.19,1.39-.18,2.06.11l-.11-3.09ZM340.62,79.03c0-.79.21-1.29-.71-1.52-.87-.22-1.22.07-1.97.37-1.06-1.74-3.25-.3-4.77-1.37.16.43.09.72,0,1.14l3.92.72c.37.15.34.69.97.75s.66-.42.89-.45c.46-.05,1.19.27,1.66.36ZM343.26,78.45l-1.38-.07-.1.85,1.47.36c-.04-.41-.24-.75,0-1.14Z"/>
        <path d="M349.21,45.04l-.8,1.14c4.16-.25,4.05,5.58.11,5.49.07.85-.1,1.83.03,2.66.1.64,1.3,3,1.22,3.33-.02.08-.17.22-.22.19l-1.03-1.83v1.6h-14.77v-1.83c-.52.49-.78,1.17-1.19,1.73-.09.13,0,.29-.29.22-.04-.2.03-.36.09-.54.3-.9,1.2-2.25,1.37-3.09.15-.72-.06-1.69.03-2.44-3.39.18-4.06-5.04-.57-5.38l-.69-1.26h5.1l1.64-3.63c-.14-.8-.28-1.3.09-2.08.95-2.01,4.09-1.42,4.28.73.04.48-.14.89-.07,1.32.05.34,1.11,3.08,1.3,3.4.06.1.1.19.2.26h4.18ZM340.82,38.43c-.74.14-1.38.89-1.46,1.63-.25,2.49,3.1,3.1,3.87,1.01.58-1.58-.79-2.94-2.41-2.64ZM348.76,55.68l-5.44-14.08c-.53.74-1.47.78-1.73,1.72l7.17,12.35ZM341.66,42.64c-.39.04-.69-.02-1.06-.14-.56-.19-.73-.59-1.23-.77l-5.96,13.85,8.24-12.93ZM342.23,45.04c0-.22-.78-1.59-.91-1.49l-.8,1.49h1.72ZM337.53,45.27h-4.58l.6.89.14.03h3.42s.42-.92.42-.92ZM342.92,46.18l-.53-.9c-1.04.06-2.32-.47-2.56.9h3.09ZM348.76,45.27h-3.66l.3.92h2.63s.14-.03.14-.03l.6-.89ZM336.96,46.53h-4.18s-.65.34-.74.41c-2.14,1.55-.26,5.31,2.25,4.31,1.04-.41,1.7-1.95.76-2.76-1.09-.94-2.65.17-1.42,1.19.12.3-.37.2-.56-.13-1.03-1.85,2.47-2.33,2.68-.27l1.2-2.75ZM344.75,49.5l-1.6-2.92c-.14-.09-3.03-.11-3.39-.06-.13.02-.25,0-.34.12l-1.78,2.86h7.1ZM349.62,46.53c-1.09-.22-2.89.16-4.07,0l1.09,2.75c.07-.47.24-.8.64-1.08,1.5-1.05,3.1.67,1.54,1.77-.21-.25.18-.46.26-.66.65-1.47-1.97-1.59-2.15-.09-.12.96.27,1.68,1.18,2.03,2.46.93,4.24-2.52,2.43-4.14-.12-.11-.8-.55-.92-.57ZM345.89,57.4l.34-.29v-5.14s-1.34-2.22-1.34-2.22l-7.4-.02-1.49,2.33c-.09.1.03.21.03.25v5.09l.34-.29.03-4.9c.27-.82,1.28-.84,1.58-.02v4.92s.35.29.35.29v-5.09c0-.74,1.27-1.02,1.58-.21l.02,5.01.34.29v-5.21c0-.44.91-.85,1.37-.45.06.05.35.53.35.57v5.09l.34-.29.05-5.1c.24-.72,1.44-.36,1.44.06v5.15l.28.17.17-.17v-5.15c0-.6,1.6-.69,1.6.23v5.09ZM333.98,51.56v1.72l.92-1.89-.06-.17-.86.34ZM348.18,53.28v-1.66s-.67-.51-.8-.34l.8,2ZM341.66,57.4v-5.21c0-.31-.93-.68-1.12.14-.14.58-.11,3.99-.03,4.67.01.09,0,.2.06.29l1.1.11ZM336.62,52.3v4.92c.25.27.9.27,1.15,0v-4.92c0-.46-1.01-.64-1.15,0ZM338.68,57.4l.98-.11c-.05-.87.28-4.7-.07-5.21-.08-.11-.14-.18-.28-.19-.17-.08-.63.17-.63.29v5.21ZM343.6,57.4v-5.21c0-.36-1.03-.36-1.03,0v5.21h1.03ZM345.55,57.4v-5.21c0-.36-1.03-.36-1.03,0v5.04c.24.3.69.14,1.03.17ZM347.5,57.4v-3.26c0-.11-.83-1.49-1.03-1.66v4.92h1.03ZM335.81,52.59c-.21.12-1.15,1.45-1.15,1.54v3.09c.25.27.9.27,1.15,0v-4.63ZM334.44,57.4v-2.75c-.16.06-.4.51-.43.65-.06.28-.08,1.92.08,2.04l.35.05ZM348.18,57.4v-2.12c0-.07-.32-.49-.46-.51v2.46c0,.12.33.22.46.17Z"/>
        <path d="M341.28,38.66c1.72-.1,2.5,2.51.72,3.23-2.5,1.01-3.28-3.09-.72-3.23ZM340.32,39.35c-1.17,1.22.41,3.17,1.85,2.14,1.71-1.22-.52-3.53-1.85-2.14Z"/>
      </g>
    </g>
  </g>
</svg>