<?xml version="1.0" encoding="UTF-8"?>
<svg id="Capa_2" data-name="Capa 2" xmlns="http://www.w3.org/2000/svg" viewBox="0 0 449.84 72.37">
  <g id="Capa_1-2" data-name="Capa 1">
    <g>
      <path d="M342.02,54.61c.27.91,1.85.14,2.42-.1,2.36-1.01,4.69-3.07,6.86-4.45.87-.26.36,1.08.22,1.48-3.15,8.82-13.72,13.77-22.6,13.8-35.09.14-37.22-56.54-1.52-60.23,1.4-.14,3.02.19,4.38-.02.9-.14,1.54-1.04,2.38-.77-4.08,3.32-9.05,5.49-12.85,9.15-9.49,9.12-13.05,19.7-5.63,31.66,3.16,5.09,7.15,7.96,12.84,9.79,3.11,1,7.78,2.01,10.68.33V12.17c0-.19-1.41-2.2-1.79-2.32-.57-.17-1.67.33-1.67.75v30.18c0,.94-4.15,4-5.06,4.68-.76.56-7.14,4.95-7.51,4.59l.96-2.03.05-30.76c.28-.69.71-1.38,1.22-1.92,1.42-1.51,6.08-4.48,8.04-5.79,3.95-2.63,8.55-6.91,13.35-4.03,3.41,2.04,3.28,6.15,8.26,5.52,1.03-.13,1.95-.93,3.01-.76l-11.55,7.94c-2.11.57-2.76-.94-4.48-1.5v37.88Z"/>
      <path d="M39.29,9.34c-.74-2.63-4.88.94-4.7,2.85l-.18,26.85-2.66,2.68-12.26,8.01,1.89-3.61.15-29.08c1.85-2.08,3.96-3.8,6.21-5.42,4.03-2.9,9.54-6.64,13.77-9.18,1.73-1.04,3.66-2.49,5.75-1.4,1.43.74,7.96,9.59,9,11.43,5.56,9.81-5.05,11.64-10.53,16.52-.84.75-1.8,1.49-.24,2.11,3.62,1.43,7.89-.16,11.02,3.75,2.42,3.03,2.85,9.75,2.24,13.45-.24,1.46-1.71,2.65-2.84,3.45l-19.7,13.02c-.36.13-.68.01-1.02-.08-2.23-.61-5.72-2.95-8.41-3.87-4.43-1.53-9.36-1.75-14.06-1.33-2.75.24-5.28,1.59-8.02,1.88,4.03-4.03,11.13-8.62,16.9-9.35,2.51-.32,8.73-.38,11.21-.05,2.08.27,4.35,1.83,6.47,2.17V9.34ZM41.81,28.36c1.85-.93,4.92-2.56,5.51-4.71.89-3.27-3.15-8.6-5.51-10.7v15.4ZM45.58,56.97v-20.59c0-.77-2.86-2.84-3.77-2.99v21.85c0,.96,2.9,1.85,3.77,1.73Z"/>
      <path d="M367.48,34.02l9-8.78,7.02,7.06v31.42s-8.8,8.65-8.8,8.65v-35.99l-3.3-3.24-3.94,3.56v18.54c.25,1.24,3.49,2.99,3.01,3.93l-5.95,5.64-5.79-5.86-.06-41.11c2.52-3.14,5.61-6.11,8.8-8.65v24.83Z"/>
      <path d="M235.45,18.77l-10.24-4.55-5.48,1.88.53-1.59,10.37-4.92c4.13,1.43,8.53,3.24,12.21,5.57l.1,44.12-11.37,5.48-12.59-5.87-.15-27.65,12.11-5.31,4.51,1.49v-8.64ZM235.45,58.86v-23.73l-8.49-3.93v24.21l8.49,3.46Z"/>
      <path d="M103.89,25.22l7.23,6.9,7.19-6.89,6.95,6.9.17,23.09,3.43,4.05-5.23,5.2-.89-.26-5.43-5.26-.07-21.31-4.28-4.23c-1.3.77-4.34,3.06-4.53,4.52-.7,5.3.55,12.14.02,17.61l3.13,3.46-5.85,5.48-5.3-5.01-.16-23.1-3.44-3.73,7.05-7.42Z"/>
      <path d="M82.67,35.12c-.11-.34-1.87-.92-2.35-1.11-1.66-.65-6.74-2.6-8.2-2.81-1.64-.23-4.08.54-5.79.61l.32-1.09,11.17-5.2,12.1,5.56.3,22.88,5.31,5.71-4.89,4.81-5.29-4.06c-2.26.61-7.57,4.7-9.68,4.34l-11.87-5.44-.33-14.48.22-.49,11.98-5.88,7,2.46v-5.82ZM82.67,60.11v-10.85l-11.63-5.82v11.32l11.63,5.34Z"/>
      <path d="M187.93,31.87l-.1,26.99-11.64,5.63-12.11-5.16-.27-28.42,11.76-4.94,12.36,5.89ZM180.13,58.86v-23.73c-2.63-1.61-5.59-3.01-8.49-3.93v24.21l8.49,3.46Z"/>
      <path d="M4.09,49.74l1.58-3.61.13-25.01c1.14-2.49,13.07-8.56,13.07-10.51-2.77-3.58-9.75-4.04-14-3.61-1.7.17-3.2,1.19-4.87,1.1C6.46,3.16,13.35-.71,21.81.11c3.73.36,7.99,2.5,11.65,2.15.55-.05,2.11-1.16,1.42.16l-16.91,12.01-.69,1.83-.05,24.15-13.14,9.33Z"/>
      <path d="M431.68,50.12l-.03,5.25,9.3,4.06c1.19-.12,2.39-.4,3.55-.72,1.8-.51,3.9-2.24,5.35-.47-3.04,1.1-10.15,6.78-13.04,6.78-.96,0-6.36-2.37-7.6-2.95-.91-.43-4.52-2.01-4.76-2.79v-26.59c.45-1.53,10.32-5.69,12.31-6.45l11.18,12.31-16.26,11.58ZM431.61,32.76v13.2l7.88-4.89c.08-1.09-6.71-7.15-7.88-8.31Z"/>
      <path d="M257.84,54.08c.11.18,3.18,1.84,3.7,2.11.77.4,5.8,2.87,6.14,2.87.31,0,2.28-1.34,2.99-1.61.96-.38,3.26-1.36,3.77-.17l-11.46,7.21-12.38-5.53-.06-27.25,12.68-5.83,11.22,12.38-16.34,11.95c-.45.53-.49,3.45-.25,3.86ZM257.77,32.76v13.2l7.86-4.88c0-.63-6.75-7.49-7.86-8.33Z"/>
      <path d="M143.03,54.3l9.08,4.71,7.58-1.72c.19.81-.24.55-.59.81-1.42,1.05-8.33,5.85-9.48,6.25-.82.28-1.68.28-2.51.02l-12.73-5.81v-26.42s12.61-5.96,12.61-5.96l13.34,5.5c-.02.99-5.03,4.21-6.09,4.15l-11.21-4.31v22.79Z"/>
      <polygon points="415.89 10.13 415.89 55.87 419.03 59.01 412.91 64.82 407.16 58.95 407.07 19.38 407.54 17.97 415.89 10.13"/>
      <polygon points="393.77 25.24 399.17 30.47 399.24 54.92 402.35 58.43 396.52 64.49 390.5 58.63 390.42 34.19 387.94 31.31 393.77 25.24"/>
      <polygon points="393.73 8.56 399.56 14.69 393.73 20.81 387.61 14.69 393.73 8.56"/>
    </g>
  </g>
</svg>