<?xml version="1.0" encoding="UTF-8"?>
<svg id="Capa_2" data-name="Capa 2" xmlns="http://www.w3.org/2000/svg" viewBox="0 0 445.56 129.26">
  <defs>
    <style>
      .cls-1 {
        fill: #f7f6f6;
      }

      .cls-2 {
        fill: #fdfdfe;
      }
    </style>
  </defs>
  <g id="Capa_1-2" data-name="Capa 1">
    <g>
      <g>
        <rect class="cls-1" x="352.18" y="30.13" width="22" height="58.85"/>
        <path class="cls-1" d="M445.56,61.99c0-17.6-14.21-31.87-31.74-31.87-4.9,0-9.53,1.11-13.67,3.1v-3.1h-22v58.85h22v-26.95h.06c.55-5.98,5.56-10.65,11.65-10.65s11.1,4.68,11.65,10.65h.06v26.95h22v-26.88h0s0-.07,0-.1Z"/>
        <path class="cls-1" d="M239.39,30.13v2.8c-4.3-2.41-9.25-3.79-14.52-3.79-16.46,0-29.81,13.4-29.81,29.92s13.35,29.92,29.81,29.92c5.27,0,10.22-1.38,14.52-3.79v3.79h21.89V30.13h-21.89ZM239.39,60.4c-.15,6.41-5.37,11.57-11.79,11.57s-11.8-5.3-11.8-11.84,5.28-11.84,11.8-11.84c6.04,0,11.01,4.55,11.71,10.42h.09v1.69h0Z"/>
        <rect class="cls-1" x="352.18" y="4.07" width="22" height="22.09" rx="9.2" ry="9.2"/>
        <path class="cls-1" d="M189.41,68.47c-4.29,0-7.76-3.49-7.76-7.79h.02v-9.47h10.78v-22.08h-10.78v-14.8h-22v14.8h-.1v31.55c.01,16.53,13.37,29.94,29.84,29.94,1.03,0,2.04-.05,3.04-.15v-22.62c-.93.4-1.96.62-3.04.62Z"/>
        <path class="cls-1" d="M301.76,29.13c-5.27,0-10.22,1.38-14.52,3.79v-2.8h-21.89v84.41h21.89v-29.35c4.3,2.41,9.25,3.79,14.52,3.79,16.46,0,29.81-13.4,29.81-29.92s-13.35-29.92-29.81-29.92ZM299.04,71.97c-6.42,0-11.64-5.16-11.79-11.57h0v-1.69h.03v.63c.4-6.17,5.52-11.06,11.77-11.06s11.8,5.3,11.8,11.84-5.28,11.84-11.8,11.84Z"/>
      </g>
      <g>
        <path class="cls-1" d="M302.06,110.86c1.04-1.85,2.46-3.29,4.26-4.33,1.8-1.04,3.8-1.56,6-1.56,2.58,0,4.84.62,6.76,1.87,1.92,1.25,3.33,3.01,4.21,5.3h-3.7c-.66-1.43-1.6-2.52-2.84-3.29-1.23-.77-2.71-1.16-4.43-1.16s-3.14.39-4.45,1.16c-1.31.77-2.34,1.86-3.09,3.28-.75,1.42-1.12,3.07-1.12,4.98s.37,3.53,1.12,4.94c.75,1.42,1.78,2.51,3.09,3.28,1.31.77,2.8,1.15,4.45,1.15s3.2-.38,4.43-1.14c1.23-.76,2.18-1.85,2.84-3.28h3.7c-.88,2.26-2.29,4.01-4.21,5.25-1.93,1.23-4.18,1.85-6.76,1.85-2.2,0-4.2-.52-6-1.55-1.8-1.03-3.22-2.46-4.26-4.3s-1.56-3.91-1.56-6.22.52-4.39,1.56-6.23Z"/>
        <path class="cls-1" d="M331.26,128.07c-1.42-.79-2.53-1.92-3.33-3.38-.8-1.46-1.21-3.15-1.21-5.08s.41-3.58,1.24-5.04,1.95-2.58,3.38-3.36c1.43-.78,3.02-1.17,4.79-1.17s3.36.39,4.79,1.17c1.43.78,2.55,1.9,3.38,3.35.83,1.45,1.24,3.14,1.24,5.06s-.42,3.62-1.27,5.08c-.85,1.46-2,2.59-3.45,3.38-1.45.79-3.06,1.19-4.82,1.19s-3.32-.4-4.74-1.19ZM339.12,125.76c.97-.52,1.76-1.3,2.36-2.34.6-1.04.9-2.31.9-3.8s-.29-2.76-.88-3.8c-.59-1.04-1.36-1.82-2.31-2.33-.95-.51-1.98-.76-3.09-.76s-2.17.25-3.11.76c-.94.51-1.69,1.29-2.26,2.33-.57,1.04-.85,2.31-.85,3.8s.28,2.8.83,3.84c.55,1.04,1.3,1.82,2.23,2.33.93.51,1.95.76,3.06.76s2.15-.26,3.13-.78Z"/>
        <path class="cls-1" d="M364.2,112.05c1.4,1.37,2.11,3.35,2.11,5.93v10.97h-3.06v-10.53c0-1.86-.46-3.28-1.39-4.26-.93-.99-2.2-1.48-3.81-1.48s-2.93.51-3.89,1.53c-.96,1.02-1.44,2.5-1.44,4.45v10.29h-3.09v-18.62h3.09v2.65c.61-.95,1.44-1.69,2.5-2.21s2.21-.78,3.48-.78c2.26,0,4.1.68,5.5,2.05Z"/>
        <path class="cls-1" d="M385.94,112.05c1.4,1.37,2.11,3.35,2.11,5.93v10.97h-3.06v-10.53c0-1.86-.46-3.28-1.39-4.26-.93-.99-2.2-1.48-3.81-1.48s-2.93.51-3.89,1.53c-.96,1.02-1.44,2.5-1.44,4.45v10.29h-3.09v-18.62h3.09v2.65c.61-.95,1.44-1.69,2.5-2.21s2.21-.78,3.48-.78c2.26,0,4.1.68,5.5,2.05Z"/>
        <path class="cls-1" d="M409.99,120.8h-14.88c.11,1.83.74,3.27,1.89,4.3,1.14,1.03,2.53,1.55,4.16,1.55,1.34,0,2.45-.31,3.35-.93.89-.62,1.52-1.46,1.89-2.5h3.33c-.5,1.79-1.49,3.24-2.99,4.37-1.5,1.12-3.35,1.68-5.57,1.68-1.77,0-3.35-.4-4.74-1.19-1.39-.79-2.49-1.92-3.28-3.38-.79-1.46-1.19-3.15-1.19-5.08s.38-3.61,1.16-5.06c.77-1.45,1.85-2.56,3.24-3.35,1.39-.78,3-1.17,4.81-1.17s3.33.39,4.69,1.16c1.36.77,2.41,1.83,3.14,3.18s1.1,2.87,1.1,4.57c0,.59-.03,1.21-.1,1.87ZM406.12,115.24c-.52-.85-1.23-1.5-2.12-1.94-.9-.44-1.89-.66-2.97-.66-1.56,0-2.89.5-3.99,1.5-1.1,1-1.73,2.38-1.89,4.14h11.75c0-1.18-.26-2.19-.78-3.04Z"/>
        <path class="cls-1" d="M414.17,114.56c.77-1.44,1.84-2.55,3.21-3.35,1.37-.79,2.94-1.19,4.71-1.19,2.29,0,4.17.56,5.66,1.67,1.48,1.11,2.46,2.65,2.94,4.62h-3.33c-.32-1.13-.93-2.03-1.85-2.68-.92-.66-2.06-.99-3.41-.99-1.77,0-3.19.61-4.28,1.82-1.09,1.21-1.63,2.93-1.63,5.15s.54,3.97,1.63,5.2c1.09,1.22,2.51,1.83,4.28,1.83,1.36,0,2.49-.32,3.4-.95.91-.63,1.53-1.54,1.87-2.72h3.33c-.5,1.9-1.5,3.43-2.99,4.57-1.5,1.14-3.36,1.72-5.61,1.72-1.77,0-3.33-.4-4.71-1.19-1.37-.79-2.44-1.91-3.21-3.36-.77-1.45-1.16-3.15-1.16-5.1s.38-3.61,1.16-5.04Z"/>
        <path class="cls-1" d="M438.57,112.88v10.97c0,.91.19,1.55.58,1.92.38.37,1.05.56,2,.56h2.28v2.62h-2.79c-1.72,0-3.01-.4-3.87-1.19-.86-.79-1.29-2.09-1.29-3.91v-10.97h-2.41v-2.55h2.41v-4.69h3.09v4.69h4.86v2.55h-4.86Z"/>
      </g>
      <g>
        <path class="cls-2" d="M59.01,34.71h5.84c1.59,0,4.27-3.2,7.15-3.49,12.65-1.27,12.66,17.87.18,16.74-3.55-.32-5.28-3.66-8.55-3.66h-4.62v23.19h-16.57c.43-.94,1.19-1.67,1.71-2.56,5.71-9.89-3.23-21.85-14.3-19.18-8.1,1.95-12.31,11.06-8.54,18.55l2.12,3.2H7.31c-2.25,0-5.13-2.2-6.11-4.18-3.55-7.19,1.2-16.52,9.16-17.62-1.94-8.77,3.27-18.38,11.86-21.1-.49-1.31-1.12-2.57-1.35-3.97-1.19-7.14,4.63-13.84,11.9-13.31,4.64.34,7.98,3.71,7.58,8.47-.14,1.7-2.42,5.1.45,5.14,1.72.02,2.99-.44,5.04.19,1.38.43,3.37,2.59,4.55,1.4,2.02-2.02-2.3-3.98-3.8-4.41-1.11-.32-2.29-.49-3.45-.48,1.26-4.59-.83-9.65-5.04-11.88-.26-.45,1.43-2.08,1.82-2.42,4.7-4.11,13.98-5.02,17.66.81.61.96,1.43,3.22,1.43,4.33v26.25ZM29.15,30.92c-4.27.48-8.48,3.52-10.57,7.22-.73,1.3-3.25,6.77-.14,6.67,1.67-.05,1.77-2.54,2.29-3.82,2.04-4.99,6.89-7.49,12.18-6.96,1.17.12,2.98,1.09,3.9.72,1.2-.49,1.27-1.98.21-2.73-1.66-1.18-5.88-1.32-7.87-1.1Z"/>
        <path class="cls-2" d="M64.25,7.24c.91-6.73,9.17-8.32,14.64-6.45,3.54,1.21,6.07,3.98,7.79,7.21,10.34-3.7,19.42,6.93,14.19,16.58,7.5,2.36,12.66,10.13,12.21,17.96,0,0-2.58-.12-4.58.56-3.38,1.16-6.26,4.88-6.41,8.51-4.33-1.95-9.64-1.7-13.41,1.32-1.1.88-3.27,2.71-1.62,4.09,1.46,1.22,2.72-1.02,3.89-1.82,3.31-2.28,7.25-2.23,10.68-.24,1.02.59,1.43,1.61,2.92,1.11s.51-2.55.51-3.5c0-5.34,5.4-8.1,10.11-6.28,6.5,2.51,9.87,10.54,6.78,16.89-1,2.07-3.81,4.29-6.17,4.29h-27.82v5.14c0,3.16,4.09,4.78,3.66,9.94-.97,11.6-19.67,8.94-16.51-3.09.56-2.15,3.26-4.77,3.26-6.33v-5.67h-14.13v-18.31c.78.33,1.38,1.02,2.11,1.47,12.54,7.7,26.23-8.3,16.82-19.43-4.89-5.78-13.26-6.05-18.92-1.22V7.24ZM85.98,25.41c.87-.88.58-3.52.36-4.69-.68-3.59-3.63-7.03-7.06-8.29-1.67-.61-6.95-1.83-5.9,1.54.37,1.18,1.72.75,2.6.88,3.99.62,7.14,3.38,7.43,7.57.07.95-.36,1.91.11,2.69.5.83,1.77.99,2.45.3Z"/>
        <path class="cls-2" d="M37.74,72.55h18.66c1.12,1.68,1.52,2.98.88,4.98-1.24,3.88-5.3,4.9-8.99,4.61-1.31-.11-4.17-1.37-4.45.8-.1.81,1.09,2.95,1.22,4.17.42,4.2-1.34,7.46-4.83,9.64-1.1.69-2.49.64-2.14,2.55.42,2.32,4.11-.03,5.11-.81,4.02-3.12,5.9-8.23,4.65-13.22,0,0,2.12.04,3.58,0,4.69-.14,7.5-3.88,7.59-3.84v22.24c-.36,10.7-10.15,16.78-20.19,13.56-5.52-1.77-10.75-7.59-10.85-13.57-.02-1.06.56-2.2-.17-3.14-.87-1.12-2.5-.62-2.78.71-.54,2.6.17,5.26.86,7.75-7.54.45-13.87-6.42-12.36-13.93,5.09.93,11.25-1.21,13.02-6.42.57-1.68,1.18-6.62-1.76-5.94-1.74.4-.82,2.25-.86,3.31-.09,2.41-2.18,4.78-4.4,5.56-8.44,2.96-16.07-6.85-14.49-14.84.38-1.92,2.5-4.18,4.54-4.18h18.57v-5.14c0-1.9-1.63-3.25-2.47-4.68-4.22-7.16,3.2-15.37,10.79-12.01,4.38,1.94,6.15,7.43,3.92,11.66-.72,1.38-2.65,2.96-2.65,4.68v5.49Z"/>
        <path class="cls-2" d="M73.49,72.55c-4.96,5.66-4.2,14.6,1.93,19.08,10.81,7.9,24.81-3.35,19.72-15.54l-2.12-3.54h20.49c1.71,0,3.74,1.81,4.31,3.37,1.66,4.56-.84,10.47-4.39,13.46-1.44,1.21-3.03,1.84-4.7,2.64,1.85,4.45,1.34,9.44-1.92,13.06-2.99,3.32-8.25,4.98-12.5,3.25-3.81-1.54-4.44-6.75-1.16-9.24,1.07-.81,2.82-.99,2.24-2.83-.81-2.59-4.66.61-5.57,1.77-2.92,3.68-2.55,8.78,1.04,11.84.32.27,1.7,1.03,1.64,1.3-.08.33-2.6,2.86-3.05,3.23-6.18,5.16-16.55,5.02-21.88-1.31-1.27-1.52-3.32-5.36-3.32-7.32v-33.22h9.24Z"/>
      </g>
    </g>
  </g>
</svg>