<?xml version="1.0" encoding="UTF-8"?>
<svg id="Capa_2" data-name="Capa 2" xmlns="http://www.w3.org/2000/svg" viewBox="0 0 285.98 466.87">
  <defs>
    <style>
      .cls-1, .cls-2 {
        fill: #f7f6f6;
      }

      .cls-2 {
        font-family: Poppins-Regular, Poppins;
        font-size: 33.97px;
      }

      .cls-3 {
        fill: #fdfdfe;
      }
    </style>
  </defs>
  <g id="Capa_1-2" data-name="Capa 1">
    <g>
      <g>
        <g>
          <rect class="cls-1" x="192.6" y="348.61" width="22" height="58.85"/>
          <path class="cls-1" d="M285.98,380.47c0-17.6-14.21-31.87-31.74-31.87-4.9,0-9.53,1.11-13.67,3.1v-3.1h-22v58.85h22v-26.95h.06c.55-5.98,5.56-10.65,11.65-10.65s11.1,4.68,11.65,10.65h.06v26.95h22v-26.88h0s0-.07,0-.1Z"/>
          <path class="cls-1" d="M79.82,348.61v2.8c-4.3-2.41-9.25-3.79-14.52-3.79-16.46,0-29.81,13.4-29.81,29.92s13.35,29.92,29.81,29.92c5.27,0,10.22-1.38,14.52-3.79v3.79h21.89v-58.85h-21.89ZM79.81,378.88c-.15,6.41-5.37,11.57-11.79,11.57s-11.8-5.3-11.8-11.84,5.28-11.84,11.8-11.84c6.04,0,11.01,4.55,11.71,10.42h.09v1.69h0Z"/>
          <rect class="cls-1" x="192.6" y="322.55" width="22" height="22.09" rx="9.2" ry="9.2"/>
          <path class="cls-1" d="M29.84,386.95c-4.29,0-7.76-3.49-7.76-7.79h.02v-9.47h10.78v-22.08h-10.78v-14.8H.1v14.8h-.1v31.55c.01,16.53,13.37,29.94,29.84,29.94,1.03,0,2.04-.05,3.04-.15v-22.62c-.93.4-1.96.62-3.04.62Z"/>
          <path class="cls-1" d="M142.18,347.61c-5.27,0-10.22,1.38-14.52,3.79v-2.8h-21.89v84.41h21.89v-29.35c4.3,2.41,9.25,3.79,14.52,3.79,16.46,0,29.81-13.4,29.81-29.92s-13.35-29.92-29.81-29.92ZM139.46,390.45c-6.42,0-11.64-5.16-11.79-11.57h0v-1.69h.03v.63c.4-6.17,5.52-11.06,11.77-11.06s11.8,5.3,11.8,11.84-5.28,11.84-11.8,11.84Z"/>
        </g>
        <text class="cls-2" transform="translate(139.46 447.43)"><tspan x="0" y="0">Connect</tspan></text>
      </g>
      <g>
        <path class="cls-3" d="M136.07,80.03h13.47c3.67,0,9.85-7.37,16.49-8.04,29.17-2.93,29.18,41.2.4,38.59-8.19-.74-12.18-8.44-19.71-8.44h-10.66v53.48h-38.2c.98-2.17,2.75-3.85,3.94-5.91,13.17-22.81-7.45-50.37-32.98-44.23-18.68,4.49-28.37,25.5-19.69,42.78l4.9,7.37H16.85c-5.19,0-11.84-5.08-14.09-9.63-8.2-16.59,2.77-38.09,21.13-40.63-4.46-20.22,7.54-42.37,27.34-48.66-1.13-3.01-2.58-5.93-3.12-9.14-2.73-16.46,10.67-31.9,27.45-30.69,10.69.77,18.4,8.55,17.48,19.53-.33,3.93-5.57,11.75,1.04,11.84,3.97.06,6.91-1.01,11.61.45,3.19.99,7.76,5.96,10.5,3.22,4.65-4.66-5.29-9.18-8.76-10.18-2.56-.74-5.29-1.13-7.94-1.11,2.9-10.59-1.92-22.25-11.62-27.39-.6-1.03,3.29-4.79,4.19-5.57,10.83-9.47,32.24-11.59,40.73,1.87,1.4,2.22,3.29,7.43,3.29,9.98v60.52ZM67.22,71.29c-9.84,1.11-19.55,8.13-24.36,16.65-1.69,2.99-7.49,15.61-.32,15.39,3.85-.12,4.08-5.86,5.28-8.82,4.71-11.5,15.88-17.27,28.08-16.05,2.7.27,6.88,2.52,8.99,1.66,2.76-1.13,2.94-4.56.48-6.3-3.84-2.72-13.56-3.05-18.16-2.53Z"/>
        <path class="cls-3" d="M148.13,16.7c2.1-15.53,21.15-19.18,33.76-14.86,8.17,2.8,13.99,9.18,17.97,16.63,23.84-8.53,44.79,15.98,32.71,38.23,17.29,5.44,29.18,23.35,28.15,41.42,0,0-5.95-.29-10.56,1.3-7.79,2.67-14.43,11.26-14.77,19.61-9.98-4.5-22.22-3.91-30.93,3.05-2.54,2.03-7.53,6.24-3.75,9.42,3.36,2.82,6.27-2.35,8.97-4.2,7.64-5.25,16.71-5.13,24.63-.56,2.34,1.36,3.29,3.7,6.73,2.56,3.31-1.1,1.19-5.88,1.18-8.06-.01-12.31,12.44-18.67,23.31-14.47,14.99,5.79,22.75,24.3,15.64,38.95-2.31,4.77-8.79,9.9-14.22,9.9h-64.14v11.86c0,7.29,9.43,11.03,8.44,22.91-2.24,26.74-45.34,20.61-38.08-7.11,1.3-4.96,7.52-10.99,7.52-14.59v-13.07h-32.57v-42.22c1.79.77,3.17,2.35,4.86,3.39,28.92,17.75,60.49-19.14,38.78-44.81-11.28-13.34-30.58-13.95-43.63-2.81V16.7ZM198.25,58.58c2-2.03,1.35-8.11.84-10.81-1.57-8.29-8.38-16.21-16.27-19.11-3.85-1.41-16.03-4.21-13.59,3.54.85,2.72,3.98,1.72,6,2.04,9.21,1.43,16.45,7.79,17.13,17.45.15,2.18-.84,4.41.24,6.2,1.16,1.92,4.08,2.29,5.66.69Z"/>
        <path class="cls-3" d="M87.01,167.29h43.02c2.58,3.88,3.51,6.88,2.03,11.48-2.87,8.94-12.21,11.31-20.72,10.63-3.03-.24-9.61-3.16-10.25,1.85-.24,1.87,2.52,6.79,2.8,9.62.97,9.69-3.09,17.2-11.13,22.24-2.55,1.6-5.74,1.47-4.93,5.89.98,5.36,9.47-.07,11.77-1.86,9.27-7.2,13.6-18.98,10.72-30.49,0,0,4.88.1,8.24,0,10.81-.32,17.28-8.94,17.49-8.84l.02,51.28c-.84,24.67-23.43,38.68-46.57,31.26-12.72-4.08-24.78-17.5-25.02-31.29-.04-2.43,1.29-5.06-.39-7.23-2.01-2.59-5.78-1.44-6.41,1.64-1.24,6,.39,12.12,1.98,17.86-17.4,1.05-31.98-14.8-28.51-32.12,11.74,2.16,25.94-2.78,30.03-14.81,1.32-3.87,2.73-15.26-4.05-13.7-4.02.93-1.9,5.18-1.99,7.62-.21,5.55-5.03,11.01-10.14,12.81-19.46,6.84-37.05-15.8-33.41-34.21.88-4.43,5.76-9.63,10.47-9.63h42.82v-11.86c0-4.38-3.76-7.5-5.7-10.79-9.74-16.52,7.38-35.44,24.87-27.68,10.09,4.47,14.18,17.14,9.05,26.88-1.67,3.17-6.1,6.83-6.1,10.78v12.67Z"/>
        <path class="cls-3" d="M169.44,167.29c-11.44,13.05-9.67,33.67,4.46,44,24.93,18.21,57.21-7.72,45.47-35.82l-4.89-8.17h47.25c3.93,0,8.62,4.17,9.93,7.77,3.82,10.52-1.93,24.14-10.12,31.04-3.32,2.8-6.98,4.23-10.84,6.08,4.26,10.26,3.1,21.76-4.43,30.12-6.89,7.65-19.01,11.48-28.83,7.5-8.78-3.56-10.23-15.57-2.68-21.31,2.47-1.87,6.5-2.29,5.18-6.53-1.86-5.98-10.74,1.41-12.85,4.08-6.73,8.48-5.89,20.25,2.39,27.3.73.62,3.93,2.38,3.79,3-.18.76-6,6.6-7.03,7.46-14.24,11.9-38.16,11.58-50.44-3.02-2.94-3.49-7.65-12.36-7.65-16.88v-76.6h21.31Z"/>
      </g>
    </g>
  </g>
</svg>